<?xml version="1.0" encoding="UTF-8"?>
<!-- Generator: Adobe Illustrator 14.0.0, SVG Export Plug-In  -->
<!DOCTYPE svg PUBLIC "-//W3C//DTD SVG 1.1//EN" "http://www.w3.org/Graphics/SVG/1.1/DTD/svg11.dtd" [
	<!ENTITY ns_flows "http://ns.adobe.com/Flows/1.0/">
]>
<svg version="1.1" xmlns="http://www.w3.org/2000/svg" xmlns:xlink="http://www.w3.org/1999/xlink" xmlns:a="http://ns.adobe.com/AdobeSVGViewerExtensions/3.0/" x="0px" y="0px" width="551px" height="551px" viewBox="0 0 551 551" enable-background="new 0 0 551 551" xml:space="preserve">
<defs>
</defs>
<path fill="#FFD900" d="M275.564,0C123.646,0,0,123.665,0,275.584c0,151.937,123.646,275.545,275.564,275.545  c151.937,0,275.545-123.608,275.545-275.545C551.109,123.665,427.501,0,275.564,0"/>
<polygon fill-rule="evenodd" clip-rule="evenodd" fill="#2B2929" points="204.134,406.635 225.704,406.635 198.362,459.837   160.994,459.837 "/>
<polygon fill-rule="evenodd" clip-rule="evenodd" fill="#2B2929" points="351.134,406.635 329.489,406.635 356.831,459.837   394.235,459.837 "/>
<path fill="#2B2929" d="M357.818,143.412h-74.697v-21.095h32.506l19.406-44.696h17.05V62.526h-153v15.094h15.019l19.273,44.696  h34.671v21.095h-68.962c-16.899,0-30.569,15.476-30.569,34.5v184.103c0,19.063,13.67,34.557,30.569,34.557h158.735  c16.86,0,30.531-15.494,30.531-34.557V177.912C388.35,158.888,374.679,143.412,357.818,143.412 M242.659,107.223l-12.266-29.602  h88.311l-12.304,29.602H242.659z M228.286,158.108h96.987c4.671,0,8.545,3.817,8.545,8.45c0,4.652-3.875,8.506-8.545,8.506h-96.987  c-4.671,0-8.488-3.854-8.488-8.506C219.798,161.925,223.615,158.108,228.286,158.108z M196.235,320.622  c0-7.975,6-14.43,13.386-14.43c7.424,0,13.443,6.456,13.443,14.43c0,7.974-6.019,14.43-13.443,14.43  C202.235,335.052,196.235,328.596,196.235,320.622z M334.122,363.533c-33.076,7.063-80.583,7.063-113.621,0  c-11.925-2.583-20.753-8.658-19.785-12.076l0.607-0.494c1.291-3.19,9.987-5.659,20.583-5.659h110.772  c10.594,0,19.367,2.469,20.62,5.659l0.57,0.494C354.856,354.875,346.046,360.951,334.122,363.533z M344.982,335.052  c-7.443,0-13.366-6.456-13.366-14.43c0-7.975,5.923-14.43,13.366-14.43c7.406,0,13.406,6.456,13.406,14.43  C358.388,328.596,352.388,335.052,344.982,335.052z M367.007,270.343c0,5.734-4.595,10.33-10.253,10.33h-70.253h-88.025  c-5.659,0-10.234-4.596-10.234-10.33v-70.689c0-5.772,4.575-10.424,10.234-10.424h88.025h70.253c5.658,0,10.253,4.652,10.253,10.424  V270.343z"/>
</svg>