<svg width="588" height="586" viewBox="0 0 588 586" fill="none" xmlns="http://www.w3.org/2000/svg">
<path d="M574.5 293C574.5 450.166 447.755 577.5 291.5 577.5C135.244 577.5 8.5 450.166 8.5 293C8.5 135.834 135.244 8.5 291.5 8.5C447.755 8.5 574.5 135.834 574.5 293Z" fill="#3D8950" stroke="white" stroke-width="17"/>
<path fill-rule="evenodd" clip-rule="evenodd" d="M292 136.5C292 136.333 292 136.167 291.999 136H292.024C293.309 203.871 346.809 258.966 414.031 262.788C402.851 276.581 389.38 288.441 374.197 297.789C395.971 322.483 425.388 340.278 458.747 347.472C447.98 363.692 434.908 378.251 420 390.681C444.656 411.24 474.336 425.976 506.928 432.779C461.226 503.324 381.814 550 291.5 550C201.186 550 121.774 503.324 76.0717 432.779C108.885 425.93 138.746 411.04 163.5 390.263C148.799 377.925 135.9 363.511 125.253 347.472C158.612 340.278 188.029 322.483 209.803 297.789C195.674 289.09 183.027 278.216 172.33 265.632C239.259 260.609 292 204.714 292 136.5Z" fill="white"/>
<path d="M288.647 46.7812C289.545 44.0172 293.455 44.0172 294.353 46.7812L302.838 72.8946C303.24 74.1307 304.391 74.9676 305.691 74.9676H333.148C336.055 74.9676 337.263 78.6864 334.912 80.3946L312.698 96.5337C311.647 97.2976 311.207 98.6517 311.609 99.8878L320.093 126.001C320.991 128.765 317.828 131.064 315.477 129.355L293.263 113.216C292.212 112.452 290.788 112.452 289.737 113.216L267.523 129.355C265.172 131.064 262.009 128.765 262.907 126.001L271.391 99.8878C271.793 98.6517 271.353 97.2976 270.302 96.5337L248.088 80.3946C245.737 78.6864 246.945 74.9676 249.852 74.9676H277.309C278.609 74.9676 279.76 74.1307 280.162 72.8946L288.647 46.7812Z" fill="white"/>
<path d="M138.573 148.169C138.452 148.23 138.208 149.631 137.842 152.252C136.837 159.96 136.045 164.134 134.856 167.638C133.028 173.092 130.316 176.352 125.746 178.607C122.059 180.435 117.062 181.563 107.252 182.842C103.321 183.391 103.047 183.452 103.047 184C103.047 184.548 103.321 184.64 106.124 184.975C120.81 186.834 126.355 188.57 130.377 192.592C134.308 196.523 136.045 201.916 137.842 215.718C138.36 219.648 138.421 219.923 138.97 219.923C139.518 219.923 139.609 219.648 140.036 216.236C141.864 201.977 143.601 196.553 147.592 192.592C151.614 188.57 157.159 186.834 171.845 184.975C174.648 184.609 174.923 184.518 174.923 184C174.923 183.452 174.648 183.391 170.718 182.873C163.101 181.898 159.018 181.075 155.605 179.978C149.969 178.15 146.678 175.469 144.423 170.929C142.504 167.059 141.407 162.245 140.036 151.764C139.731 149.479 139.518 148.291 139.396 148.199C139.152 148.016 138.848 148.016 138.573 148.169Z" fill="white"/>
<path d="M445.573 148.169C445.452 148.23 445.208 149.631 444.842 152.252C443.837 159.96 443.045 164.134 441.856 167.638C440.028 173.092 437.316 176.352 432.746 178.607C429.059 180.435 424.062 181.563 414.252 182.842C410.321 183.391 410.047 183.452 410.047 184C410.047 184.548 410.321 184.64 413.124 184.975C427.81 186.834 433.355 188.57 437.377 192.592C441.308 196.523 443.045 201.916 444.842 215.718C445.36 219.648 445.421 219.923 445.97 219.923C446.518 219.923 446.609 219.648 447.036 216.236C448.864 201.977 450.601 196.553 454.592 192.592C458.614 188.57 464.159 186.834 478.845 184.975C481.648 184.609 481.923 184.518 481.923 184C481.923 183.452 481.648 183.391 477.718 182.873C470.101 181.898 466.018 181.075 462.605 179.978C456.969 178.15 453.678 175.469 451.423 170.929C449.504 167.059 448.407 162.245 447.036 151.764C446.731 149.479 446.518 148.291 446.396 148.199C446.152 148.016 445.848 148.016 445.573 148.169Z" fill="white"/>
</svg>
