<?xml version="1.0" encoding="utf-8"?>
<!-- Generator: Adobe Illustrator 25.0.1, SVG Export Plug-In . SVG Version: 6.00 Build 0)  -->
<svg version="1.1" id="Layer_1" xmlns="http://www.w3.org/2000/svg" xmlns:xlink="http://www.w3.org/1999/xlink" x="0px" y="0px"
	 viewBox="0 0 221 221" style="enable-background:new 0 0 221 221;" xml:space="preserve">
<style type="text/css">
	.st0{fill:#FFFFFF;}
	.st1{clip-path:url(#SVGID_2_);}
	.st2{clip-path:url(#SVGID_2_);fill-rule:evenodd;clip-rule:evenodd;}
	.st3{fill-rule:evenodd;clip-rule:evenodd;}
</style>
<rect x="33.1" y="33.1" transform="matrix(0.7071 -0.7071 0.7071 0.7071 -45.7918 110.5512)" class="st0" width="154.9" height="154.9"/>
<path d="M92.9,119.3c1.3,0,2.6,0.1,3.9,0.3c1-0.3,2.1-0.2,3.1,0.3c1.3-0.2,2.7-0.3,4-0.3c0.4,0,0.8,0,1.2,0c0.6-0.1,1.2-0.2,1.9-0.2
	c-0.1-0.7-0.2-1.4-0.4-2.2c0.8,0.5,1.2,0.8,1.6,1c0.2-0.1,0.3-0.2,0.5-0.3c-0.5-1.5-1.1-2.9-1.7-4.6c0.8-0.2,1.4-0.4,1.9-0.5
	c-0.2-2.9,2.1-5.9-0.1-8.3c0.2-1.2,0.5-2.2,0.4-3.2c-0.2-2.5-0.7-4.9-0.8-7.4c-0.1-1.6,0.5-3.1,0.6-4.7c0.3-3.8,0.5-7.6,0.8-11.3
	c0.1-0.7,0.5-1.3,0.8-1.9c0.2,0,0.4,0.1,0.5,0.1c0.1,1.3,0.2,2.6,0.4,4.5c1.1-1.7,2.4-2.8,2.4-3.9c-0.1-1.2-1.4-2.4-2.1-3.5
	c0.1-0.1,0.2-0.2,0.3-0.3c1.2,0.7,2.4,1.4,3.6,2.2c0.6-0.7,1.2-1.5,2-2.1c0.8-0.7,1.6-1,1.9,0.3c0-0.6,0.1-1.3-0.1-1.4
	c-0.7-0.4-1.6-0.4-2.4-0.5c-0.8-0.1-1.6,0-2.5,0c0.2-0.8,0.4-1.2,0.4-1.3c-0.6-0.5-0.9-0.8-1.3-1.1c-1.7,1.1-3.8,1.9-5.2,3.3
	c-2.1,2.1-4.5,0.9-6.9,1.6c-0.5,0.4-1.2,1.6-2.1,1.6c-3.2,0.3-4.7,1.6-4.7,4.7c0,0.5-0.1,1.1-0.1,1.6l-0.4,0
	c-0.2-1.1-0.4-2.1-0.5-3.2c-1.9-0.2-3.8-0.3-5.6-0.5c0-0.3,0-0.5,0-0.8c0.9-0.2,1.8-0.4,2.7-0.6c0-0.2,0-0.4-0.1-0.7
	c-9.1-0.4-18.3-1.5-27.7-1.4c-0.9-4-2-8.4-3-13.1c-0.1,2.2-0.7,4.4-1.3,6.6c-0.1,2.1-0.3,4.1-0.6,6.1c0,0.2,0,0.4-0.1,0.5
	c-0.6,4-1.3,8-1.6,12c1.8,0.1,3.5,0.1,5.3,0.1c0,0,0,0,0,0c0.2,0,0.3,0,0.5,0c0.3,0,0.5,0.3,0.4,0.5c0.2,0,0.4,0.2,0.4,0.4
	c0.7,9.4-0.2,18.8-0.3,28.2c0.1,0,0.2,0.1,0.2,0.2c0.1,0.2,0.3,0.5,0.4,0.7c0.7,0.3,1.5,0.7,2.2,1.1c1.1,0.6,2,1.3,3.2,1.7
	c0.1-0.1,0.3-0.1,0.4-0.2c-2.5-0.4-0.6-2.8-1.4-4.1c-0.6-0.2-1.3-0.4-2.5-0.8c0.5-0.4,0.8-0.9,1.2-1.2c-0.1-0.2-0.1-0.4,0.1-0.6
	c0.3-0.2,0.6-0.3,0.9-0.4c0.5-0.1,0.8,0.6,0.2,0.8c0.8,0.2,1.5,0.5,2,1c1.1,1.3,2.4,1.3,3.4-0.2c-0.8-0.2-1.7-0.3-2.6-0.5
	c0.8-0.7,1.2-1.2,1.8-1.6c0.6-0.4,1.3-0.7,2.2-1.2c-2.8,0.5-2.8-0.9-2.3-2.7c1.4-0.1,2.8-0.2,4.1-0.3c-2.3,0-4.1-0.7-5.8-2.8
	c1-0.5,1.8-0.9,2.1-1.1c0.6,1.1,1,2.1,1.3,2.1c3.2,0.1,6.3,0.1,9.5,0.1c-1.5-0.3-3-0.1-4.5-0.3c-1.2-0.2-3,0.8-3.7-1h19.2
	c0,0.2,0,0.5,0,0.7c-3,0.1-5.9,0.3-8.9,0.4c0,0.2,0,0.4,0,0.6h9.2c0,0.2,0,0.3,0,0.5l-3,1l0,0.5l3.2,0.4l0,0.5H80c0,0.3,0,0.6,0,0.8
	h12.1l0,0.7H78.4c0.9,0.5,1.8,0.7,2.7,0.7c4.2,0.1,8.3,0.1,12.5,0.2c0.7,0,1.4,0.3,2.1,0.5c-0.1,0.2-0.1,0.4-0.2,0.7H74.3
	c2,0.3,4,0.4,6,0.5c2.1,0.1,4.2-0.1,6.2,0.3c1.7,0.3,3.2,1.3,4.7,2c-0.7,0.9-1.3,1.7-2.1,2.6c-2-2.1-4-0.3-5.9,0.5
	c-0.1,0.5-0.1,1.2-0.4,1.3c-1.4,0.6-2.6,0.4-3.5-1.2c-0.2,0.9-0.5,1.8-0.3,2.5c2.4-0.7,4.9-1.1,7.4-1.2
	C88.6,119.6,90.7,119.3,92.9,119.3 M101.2,112.4h-0.9c-0.6,0-0.6-0.8,0-0.8h0.9C101.8,111.6,101.7,112.4,101.2,112.4z M99,83.3
	c0.6,0.1,1.2,0.1,1.8,0.1c0.6,0,0.6,0.8,0,0.8c-0.6,0-1.2,0-1.8-0.1C98.5,84,98.5,83.2,99,83.3z M99,110.8c0,0.7-0.7,1.4-1.1,2.2
	V91.7c0.4,0,0.7,0,1.1,0c0,1.3,0,2.6,0,3.8C99,100.6,99.1,105.7,99,110.8z M100.4,90.2h0.6c0.6,0,0.6,0.8,0,0.8h-0.6
	C99.9,91.1,99.9,90.2,100.4,90.2z M100.6,87.1h0.6c0.6,0,0.6,0.8,0,0.8h-0.6C100,88,100,87.1,100.6,87.1z M100.6,97.8
	c0.4,0,0.8,0,1.2-0.1c0.2,0,0.5,0,0.5,0.3c0.1,0.2-0.1,0.5-0.3,0.5c-0.5,0.1-0.9,0.1-1.4,0.1C100,98.7,100,97.8,100.6,97.8z
	 M100.7,94.2h1.1c0.6,0,0.6,0.8,0,0.8h-1.1C100.1,95,100.1,94.2,100.7,94.2z M101.6,92.8h-0.9c-0.6,0-0.6-0.8,0-0.8h0.9
	C102.1,92,102.1,92.8,101.6,92.8z M101.6,85.9c-0.6,0-1.2-0.1-1.9-0.1c-0.6,0-0.6-0.8,0-0.8c0.6,0,1.2,0.1,1.9,0.1
	C102.1,85.1,102.1,85.9,101.6,85.9z M99.6,108.3h1.1c0.6,0,0.6,0.8,0,0.8h-1.1C99.1,109.1,99.1,108.3,99.6,108.3z M99.9,104.6h0.9
	c0.6,0,0.6,0.8,0,0.8h-0.9C99.4,105.4,99.4,104.6,99.9,104.6z M100,110.2h1c0.6,0,0.6,0.8,0,0.8h-1C99.4,111,99.4,110.2,100,110.2z
	 M101.4,107.5h-1c-0.6,0-0.6-0.8,0-0.8h1C102,106.7,102,107.5,101.4,107.5z M101.7,101.7c-0.4,0-0.8,0.1-1.2,0.1
	c-0.6,0-0.6-0.8,0-0.8c0.4,0,0.8-0.1,1.2-0.1C102.3,100.9,102.3,101.7,101.7,101.7z M102.1,100.2H100c-0.6,0-0.6-0.8,0-0.8h2.1
	C102.6,99.3,102.6,100.2,102.1,100.2z M102.1,96.6h-1.1c-0.6,0-0.6-0.8,0-0.8h1.1C102.6,95.8,102.6,96.6,102.1,96.6z M101.9,81.7
	c0.6,0,0.6,0.8,0,0.8h-4.4c-0.6,0-0.6-0.8,0-0.8H101.9z M97.3,79.9h3.9c0.6,0,0.6,0.8,0,0.8h-3.9C96.7,80.7,96.7,79.9,97.3,79.9z
	 M95,88.2c0.5,0,1.1,0.1,1.6-0.1c0.5-0.1,0.8,0.7,0.2,0.8C96.3,89.1,95.6,89,95,89C94.5,89,94.5,88.2,95,88.2z M94.9,90.1H97
	c0.6,0,0.6,0.8,0,0.8h-2.1C94.3,90.9,94.3,90.1,94.9,90.1z M96.7,92.6h-1.6c-0.6,0-0.6-0.8,0-0.8h1.6C97.2,91.8,97.2,92.6,96.7,92.6
	z M94.8,93.7c0.7,0.1,1.3,0.1,2,0.1c0.6,0,0.6,0.8,0,0.8c-0.7,0-1.5,0-2.2-0.1C94,94.4,94.2,93.6,94.8,93.7z M96.5,96.6h-1.4
	c-0.6,0-0.6-0.8,0-0.8h1.4C97,95.8,97,96.6,96.5,96.6z M94.6,97.5c0.8,0,1.6,0.1,2.4,0.1c0.6,0,0.6,0.8,0,0.8
	c-0.8,0-1.6-0.1-2.4-0.1C94,98.3,94,97.5,94.6,97.5z M96.5,107.2h-0.9c-0.6,0-0.6-0.8,0-0.8h0.9C97,106.4,97,107.2,96.5,107.2z
	 M96.2,109.1c-0.6,0-0.6-0.8,0-0.8C96.7,108.3,96.7,109.1,96.2,109.1z M96.8,105.3H96c-0.6,0-0.6-0.8,0-0.8h0.9
	C97.4,104.5,97.4,105.3,96.8,105.3z M97,101.5c-0.7,0.1-1.4,0-2.2,0.1c-0.5,0.1-0.8-0.7-0.2-0.8c0.7-0.1,1.4,0,2.2-0.1
	C97.3,100.6,97.6,101.4,97,101.5z M93.9,99.2c0.9,0,1.7,0.1,2.6-0.1c0.5-0.1,0.8,0.7,0.2,0.8c-0.9,0.1-1.9,0.1-2.8,0.1
	C93.3,100,93.3,99.2,93.9,99.2z M92.4,85.6c-5.7,0-11.4,0.5-17.1-0.1c-0.5-0.1-0.5-0.9,0-0.8c5.7,0.6,11.4,0.2,17.1,0.1
	C93,84.8,93,85.6,92.4,85.6z M73.5,93.7h7C79.6,95,76.1,95.3,73.5,93.7z M78.9,96.4c-1.5,0.2-3.1,0.1-4.6,0.1c-0.6,0-0.6-0.8,0-0.8
	c1.5,0,3.1,0.1,4.6-0.1C79.4,95.5,79.4,96.4,78.9,96.4z M74.2,87.2l-0.1-0.9c1.7-0.1,3.5-0.2,5.2-0.3c0,0.3,0.1,0.5,0.1,0.8
	C77.7,87,75.9,87.1,74.2,87.2z M79.2,88.4c-1.5,1.5-3.1,0.7-4.7,0.6l0-0.6H79.2z M79.3,90.2c0.6,0,0.6,0.8,0,0.8h-5.5
	c-0.6,0-0.6-0.8,0-0.8H79.3z M79.4,92.4c-1.9,0.1-3.7,0.2-5.6,0.4c0-0.3,0-0.7,0-1h5.6C79.4,91.9,79.4,92.2,79.4,92.4z M76,83.1
	c2.4,0.6,4.9,0.1,7.3,0.1c2.9-0.1,5.7-0.1,8.6-0.1c0.6,0,0.6,0.8,0,0.8c-3.1,0-6.2,0-9.2,0.2c-2.3,0.1-4.7,0.4-7-0.1
	C75.2,83.7,75.5,82.9,76,83.1z M92.1,82.4c-5.4,0-10.8,0.4-16.1-0.5c-0.5-0.1-0.3-0.9,0.2-0.8c5.3,0.9,10.6,0.5,15.9,0.5
	C92.6,81.6,92.6,82.4,92.1,82.4z M65.9,109.7c0.4-0.1,0.8-0.1,1.2-0.2c0.5-0.1,0.8,0.7,0.2,0.8c-0.4,0.1-0.8,0.1-1.2,0.2
	c-0.2,0-0.5-0.1-0.5-0.3C65.6,110,65.7,109.7,65.9,109.7z M67.9,99.9c-0.5,0.4-1.1,0.8-1.7,1.1c-0.4,0.3-0.9-0.4-0.4-0.7
	c0.5-0.3,1-0.6,1.5-1C67.7,99,68.3,99.5,67.9,99.9z M67.9,101.5c-0.3,0.3-0.7,0.6-1.1,0.9c-0.5,0.3-0.9-0.4-0.4-0.7
	c0.3-0.2,0.6-0.4,0.9-0.7C67.7,100.6,68.3,101.2,67.9,101.5z M67.4,111.8c-0.4,0.1-0.9,0.1-1.3,0.1c-0.6,0-0.6-0.8,0-0.8
	c0.4,0,0.7,0,1.1-0.1c0.2,0,0.5,0,0.5,0.3C67.8,111.5,67.7,111.7,67.4,111.8z M67.7,108.8c-0.3,0.1-0.7,0.2-1,0.4
	c-0.2,0.1-0.5-0.1-0.5-0.3c-0.1-0.2,0.1-0.4,0.3-0.5c0.3-0.1,0.7-0.2,1-0.4c0.2-0.1,0.5,0.1,0.5,0.3C68,108.6,67.9,108.7,67.7,108.8
	z M67.8,107c-0.4,0.3-0.8,0.5-1.2,0.7c-0.2,0.1-0.5,0.1-0.6-0.1c-0.1-0.2-0.1-0.5,0.2-0.6c0.4-0.2,0.7-0.3,1.1-0.6
	c0.2-0.1,0.4-0.2,0.6,0C68,106.6,68,106.9,67.8,107z M66.2,105.1c0.3-0.3,0.6-0.6,0.9-0.7c0.2-0.1,0.5-0.1,0.6,0.1
	c0.1,0.2,0.1,0.5-0.2,0.6c-0.3,0.1-0.5,0.3-0.8,0.6C66.5,106,65.8,105.4,66.2,105.1z M68,102.8c-0.3,0.4-0.7,0.8-1.1,1.1
	c-0.4,0.4-1-0.2-0.6-0.6c0.4-0.4,0.7-0.7,1.1-1.1c0.1-0.2,0.5-0.1,0.6,0C68.2,102.4,68.1,102.7,68,102.8z M68,98.5
	c-0.5,0.4-1.2,0.6-1.7,1c-0.4,0.3-0.9-0.4-0.4-0.7c0.5-0.3,1.1-0.5,1.6-0.9C67.8,97.6,68.4,98.2,68,98.5z M68.1,87.4
	c-0.4,0.4-0.9,0.8-1.3,1.3c-0.1,0.2-0.4,0.3-0.6,0.1c-0.2-0.1-0.3-0.4-0.2-0.6c0.4-0.6,0.9-1,1.4-1.4C67.8,86.5,68.5,87,68.1,87.4z
	 M68.1,89.9c-0.3,0.2-0.6,0.5-0.8,0.8c-0.1,0.2-0.5,0.1-0.6,0c-0.2-0.2-0.1-0.4,0-0.6c0.3-0.4,0.6-0.7,1-0.9
	C68.1,88.9,68.6,89.6,68.1,89.9z M66.1,96c0.4-0.3,0.8-0.7,1.2-1.1c0.4-0.4,1,0.2,0.6,0.6c-0.4,0.4-0.9,0.9-1.4,1.2
	C66.1,97,65.7,96.3,66.1,96z M67.9,97.2c-0.3,0.2-0.7,0.4-1.1,0.6c-0.2,0.1-0.5,0.1-0.6-0.1c-0.1-0.2-0.1-0.5,0.2-0.6
	c0.4-0.2,0.7-0.4,1.1-0.6C67.9,96.2,68.4,96.9,67.9,97.2z M67.8,93.8c-0.3,0-0.6,0.2-0.8,0.4c-0.2,0.1-0.5,0-0.6-0.1
	c-0.1-0.2,0-0.4,0.2-0.6c0.4-0.3,0.8-0.5,1.2-0.5C68.4,93,68.4,93.8,67.8,93.8z M68.2,91.6c-0.3,0.1-0.5,0.3-0.8,0.5
	c-0.2,0.1-0.5,0-0.6-0.1c-0.1-0.2,0-0.4,0.2-0.6c0.3-0.2,0.5-0.4,0.8-0.5C68.2,90.6,68.7,91.3,68.2,91.6z M68.6,85
	c-0.7,0.5-1.4,0.9-2.1,1.4C66,86.7,65.6,86,66,85.7c0.6-0.4,1.3-0.8,1.9-1.2C68.4,84.1,69,84.7,68.6,85z M65.7,76.3
	c0-0.4,0.1-0.8,0.1-1.2c7.3,0.6,14.6,1.1,21.9,1.7c0,0.4,0,0.8-0.1,1.2C80.3,78,73,76.9,65.7,76.3z M73.7,78.7c2.9,0.6,6,0.4,9,0.5
	c3.1,0.1,6.2,0.2,9.2,0.2c0.6,0,0.6,0.8,0,0.8c-3.4,0-6.7-0.1-10.1-0.3c-2.8-0.1-5.6,0.1-8.4-0.5C72.9,79.4,73.2,78.6,73.7,78.7z
	 M73.3,97.4h6.1c0,0.2,0,0.3,0,0.5h-6C73.3,97.7,73.3,97.6,73.3,97.4z M73.4,99.4c0.1-0.1,0.1-0.3,0.2-0.4h5.8c0,0.1,0,0.3,0,0.4
	H73.4z M74,100.4c1.9,0.1,3.7,0.2,5.6,0.3c0,0.2,0,0.3,0,0.5H74C74,100.9,74,100.7,74,100.4z M87.7,103.1H74.1c0-0.3,0-0.6,0-0.9
	c4.5,0.2,9.1,0.5,13.6,0.7C87.7,102.9,87.7,103,87.7,103.1z M90.3,103.5c-0.5,0.1-1,0.1-1.5,0.1c-0.6,0-0.6-0.8,0-0.8
	c0.4,0,0.8,0,1.2-0.1c0.2,0,0.5,0,0.5,0.3C90.7,103.2,90.6,103.5,90.3,103.5z M91.9,103.6c-0.6,0-0.6-0.8,0-0.8h4.4
	c0.6,0,0.6,0.8,0,0.8H91.9z M93.8,110.8c-0.6,0-0.6-0.8,0-0.8h2.6c0.6,0,0.6,0.8,0,0.8H93.8z M96.7,114.1l3.8,1.7c0,0.1,0,0.2,0,0.3
	h-3.4c1.1,1.8,4,0,4.1,2.8c-1.4-0.1-2.7-0.2-4-0.3c-0.3-0.6-0.6-1.2-1-1.9c-0.6,0.1-1.2,0.3-1.8,0.4c-0.1-0.1-0.3-0.3-0.3-0.4
	C94.6,115.2,94.6,113.5,96.7,114.1z"/>
<path d="M181.6,82.4c-2-1-4-1.9-4.7-4.3c-0.3-1-0.4-2.1-0.4-3.2c-0.9-1.1-1.9-1.9-3-2.8c-2.7-2.1-4.7-4.8-7.7-6.5
	c-0.1,0.3-0.3,0.6-0.5,1c0.8,0.5,1.9,0.8,2.6,1.5c1.1,1,2,2.3,2.9,3.4c0.8,0.9,1.7,1.7,3,1.2c0.2,2.2,3.9,2.8,2.5,6
	c-0.4-0.4-0.9-0.6-1.1-1c-1.3-2.6-3.7-4-5.8-5.6c-2.8-2.1-5.4-4.5-8-6.8c-0.1-0.1-0.1-0.4-0.1-0.6c-0.3,0.1-0.8,0.3-0.9,0.1
	c-1.8-1.7-3.6-3.4-5.4-5.1c-0.1-0.1,0-0.5,0-0.8c-1.1-0.5-2.1-1.1-3.2-1.3c-2.6-0.4-5.3-0.6-7.9-0.8c-0.5,0-1.1,0-1.4,0.3
	c-1.4,1.2-1.3,1.2-2-0.7c-3.1-0.2-6.2-0.4-9.4-0.4c-0.8,0-1.9,0.3-2.5,0.8c-4.7,3.7-9.4,7.5-14,11.3c1.1,0.6,2.2,1.2,3.6,2
	c-0.1-0.9-0.2-1.6-0.3-2c2.1,0.4,4.2,0.7,6.5,1.2v-3.3c0.4,1.5,0.1,3.4,2.7,2.7c0.2-0.7,0.4-1.4,0.7-2.6c0.3,1.1,0.5,1.6,0.6,2.1
	c0.2-0.5,0.3-1,0.7-2.1c0.4,1.3,0.5,1.9,0.6,2.1c0.9-0.2,1.6-0.7,2.2-0.5c0.5,0.1,0.9,0.9,1.4,1.4v-3c-2.5-0.2-4.9-0.4-6.8-0.6
	c-0.5-0.8-0.9-1.4-1.5-2.3c1.5-0.3,3-0.6,4.5-0.9c0.2,0.9,0.3,1.5,0.4,2c0.8-0.7,1.6-1.4,2.3-2.1c0.8,0.7,1.4,1.3,2.1,1.9
	c0.1-0.8,0.2-1.5,0.3-2.2c0.3,2.2,1.9,2.3,3.4,2.5c0.8,2.3-1.3,1.8-2.1,2.4c0,2.6,0.6,3.5,2.4,2.9c1.2-0.3,2.1-1.1,3.2,0.1
	c0,0,0.7-0.5,0.9-0.8c0.2-0.3,0.1-0.7,0.1-1.1c0-0.3,0.1-0.5,0.1-0.8c-0.2,2.2,0.9,3,2.9,3.2c2,0.2,4,0.3,5.9,0.6
	c1.9,0.3,3.3,1.5,4.8,3.1c-1.8,0-3.1,0-4.4,0c-1.9,0-3.9-0.1-5.8-0.1l-0.1-0.1c0.6,1,1.1,1.9,1.7,3c0.7-0.5,1.1-1.1,1.6-1.2
	c0.9-0.3,2-0.6,2.9-0.4c0.5,0.2,0.9,1.3,1.1,2.1c0.3,1.2,0.3,2.4,0.5,4c0.9-1,1.5-1.6,2.1-2.2c-0.7-1-1.3-2-2-3.2
	c1.5,0.7,2.6,1.3,3.7,1.8c0.8,1.8,1.8,3.7,2.7,5.6c2.8-1.1-0.9-3.3,1-4.6c0.5,0.7,0.8,1.2,1.2,1.7c1.2-0.2,2.3-0.4,3.3-0.6
	c0,0.1,0,0.2,0,0.2c-1.2,0.5-2.4,0.9-3.6,1.4c0,0.2,0.1,0.3,0.1,0.5c0.9,0.2,1.9,0.4,2.8,0.6c0,0.1,0,0.3-0.1,0.4
	c-0.8,0.1-1.6,0.1-2.6,0.2c0.3,7.1-0.1,14,1.1,20.9c2.5,0,4.7-1,7.2,0.8c-1.2,0.3-1.8,0.4-2.1,0.5c0.5,0.3,1.2,0.7,1.9,1.1
	c-0.1,0.1-0.1,0.3-0.2,0.4h-5.4c0,0.1,0,0.1,0,0.2c1.9,0.2,3.8,0.3,5.4,0.5v2.6h-5.6c1.4,0.3,2.9,0.2,4.3,0.3c0.6,0,1.1,0.5,1.7,0.7
	c-0.6,0.3-1.2,0.6-1.2,0.6c0.7,0.8,1.5,1.7,2.4,2.7c0,0,0,0,0,0c-0.1-0.7-0.1-1.4-0.1-2c-0.1-0.8-0.1-1.6-0.2-2.5
	c-0.1-0.7-0.2-1.4-0.3-2.1c-0.2-1.8,0-3.5-0.1-5.3c-0.2-2.6-1.1-5.3-0.2-7.9c-0.2-2.2-0.3-4.4-0.1-6.6c-0.1-1.1,0-2.2,0-3.3
	c0-0.2,0.1-0.3,0.2-0.3c0.1-0.1,0.2-0.2,0.4-0.2c1.4,0,2.7-0.1,4.1-0.1c0.1,0,0.1,0,0.2,0.1c0.3-0.1,0.6-0.2,0.9-0.2
	c1.8,0,3.6,0,5.4,0.1C181.8,83.2,181.7,82.8,181.6,82.4 M163.5,85.6c1.9,0,3.8-0.1,5.7-0.1c0.6,0,0.6,0.8,0,0.8
	c-1.9,0-3.8,0.1-5.7,0.1C162.9,86.5,162.9,85.6,163.5,85.6z M163.5,88.8c1.6-0.7,3.4-0.4,5.1-0.4c0.6,0,0.6,0.8,0,0.8
	c-1.5,0-3.2-0.3-4.7,0.3C163.4,89.7,163,89,163.5,88.8z M169.3,94.7c0,0.1,0,0.3,0,0.4h-5.5v-2.6c1.9,0.2,3.8,0.3,5.7,0.5
	c0,0.2,0,0.4,0,0.6c-0.6,0.1-1.2,0.2-2.1,0.3C168.1,94.3,168.7,94.5,169.3,94.7z M168.7,102.7H164c0-0.2,0-0.5,0-0.7h4.7
	C168.7,102.2,168.7,102.5,168.7,102.7z M168.9,101.1h-4.1c0.4-1,0.8-1.8,1.2-2.8c-0.8-0.2-1.5-0.3-2.3-0.5c0-0.1,0-0.3-0.1-0.4
	c1.8-0.5,3.6-1.1,5.4-1.6c0.1,0.2,0.1,0.4,0.2,0.5c-0.4,0.8-0.9,1.5-1.5,2.5c0.3,0.1,0.8,0.3,1.6,0.5c-0.8,0.3-1.3,0.5-2,0.7
	C167.9,100.4,168.3,100.6,168.9,101.1z M169.1,90.8c-1.5,0-2.9-0.1-4.4,0.1c-0.5,0.1-0.8-0.7-0.2-0.8c1.5-0.2,3.1-0.1,4.6-0.1
	C169.7,89.9,169.7,90.8,169.1,90.8z M169.1,88.1h-5.1c-0.6,0-0.6-0.8,0-0.8h5.1C169.7,87.3,169.7,88.1,169.1,88.1z M169.6,85.2
	c-1.7,0.3-3.4,0.1-5.1,0.1c-0.6,0-0.6-0.8,0-0.8c1.6,0,3.2,0.2,4.8-0.1C169.9,84.3,170.1,85.1,169.6,85.2z M173.4,82.8h-7.2
	c0-0.3,0-0.5,0-0.8c2.4,0.1,4.8,0.2,7.2,0.3C173.4,82.6,173.4,82.7,173.4,82.8z M167.3,81.4c4.1-1.4,8.2-3.7,11.9,0H167.3z"/>
<path d="M142.5,84c-2.6-0.2-5.4-0.4-8.2-0.6c-0.8,0-1.5,0-2.7,0c0,1.3,0,2.2,0,3.2c0.2,7.7,0.3,15.3,0.5,23c0,0.7-0.1,1.5,0.2,2.1
	c0.3,0.6,1.1,1.4,1.6,1.5c3,0.1,6,0.1,9.2,0.1C143,103.3,142.7,93.7,142.5,84 M142.5,102.3c-0.8,1-1.7,1.9-2.6,2.8
	c-0.4,0.4-1-0.2-0.6-0.6c0.8-0.8,1.7-1.7,2.4-2.6C142.1,101.5,142.9,101.9,142.5,102.3z M142.5,104.7
	C142.5,104.7,142.5,104.8,142.5,104.7c0,0.1-0.1,0.1-0.1,0.2c0,0,0,0,0,0c-0.7,0.9-1.6,1.6-2.4,2.4c-0.3,0.4-1-0.2-0.6-0.6
	c0.7-0.9,1.6-1.6,2.4-2.4c0.1-0.2,0.3-0.2,0.5-0.1C142.5,104.3,142.5,104.5,142.5,104.7z M138.4,103.2c-0.7-0.9-1.6-1.6-2.5-2.3
	c-0.4-0.3-0.1-0.9,0.4-0.7c0.6-0.9,1.4-1.7,2.1-2.5c0.1-0.2,0.3-0.2,0.4-0.1c0.1-0.1,0.2-0.1,0.4,0c0.9,0.7,1.5,1.7,2.4,2.4
	c0,0,0.1,0.1,0.1,0.1c0.2,0.1,0.3,0.3,0.1,0.5c-0.6,0.8-1.5,1.4-2.1,2.2c-0.1,0.2-0.3,0.2-0.4,0.2
	C139.1,103.4,138.6,103.5,138.4,103.2z M138.3,105.3c-0.9-0.8-1.9-1.5-2.6-2.5c-0.3-0.4,0.4-0.8,0.7-0.4c0.7,0.9,1.6,1.5,2.4,2.3
	C139.4,105.1,138.7,105.6,138.3,105.3z M138.3,95.7c0.4-0.4,1,0.2,0.6,0.6c-1.1,1-2.2,2.1-3.1,3.4c-0.3,0.4-1.1,0-0.7-0.4
	C136.1,97.9,137.2,96.7,138.3,95.7z M135.3,96.7c0.6-1.2,1.8-2.3,3-3c0.4-0.3,0.9,0.4,0.4,0.7c-1,0.7-2.1,1.6-2.6,2.7
	C135.8,97.6,135,97.2,135.3,96.7z M140.1,96.6c0.7,0.8,1.4,1.5,2.1,2.4c0.3,0.4-0.4,0.8-0.7,0.4c-0.6-0.8-1.3-1.5-1.9-2.2
	C139.1,96.8,139.7,96.2,140.1,96.6z M140.3,90.9c0.6,0.7,1.4,1.3,1.9,2.1c0.3,0.4-0.4,0.8-0.7,0.4c-0.5-0.7-1.2-1.3-1.8-1.9
	C139.3,91.1,140,90.5,140.3,90.9z M140,92.4c0.7,0.9,1.2,1.9,1.9,2.7c0.4,0.4-0.3,1-0.6,0.6c-0.7-0.8-1.2-1.9-1.9-2.7
	C139,92.5,139.6,91.9,140,92.4z M139.7,94.3c0.8,0.9,1.9,1.6,2.7,2.6c0.3,0.4-0.3,1-0.6,0.6c-0.8-1-1.8-1.7-2.7-2.6
	C138.8,94.5,139.4,93.9,139.7,94.3z M138.9,92.2c-1.1,0.7-2.1,1.5-3,2.4c-0.4,0.4-1-0.2-0.6-0.6c1-1,2-1.8,3.2-2.6
	C138.9,91.2,139.3,91.9,138.9,92.2z M134.8,92.7c0.9-0.7,1.6-1.7,2.5-2.4c0.4-0.3,1,0.2,0.6,0.6c-0.9,0.8-1.6,1.7-2.5,2.4
	C135,93.6,134.3,93.1,134.8,92.7z M136.4,111.7c-0.2,0.2-0.4,0.1-0.6,0c-0.3-0.2-0.6-0.5-0.9-0.8c-0.4-0.4,0.2-1,0.6-0.6
	c0.3,0.3,0.6,0.6,0.9,0.8C136.6,111.2,136.5,111.5,136.4,111.7z M137.6,111c-0.8-1.1-1.6-2.1-2.4-3.1c-0.3-0.4,0.4-0.8,0.7-0.4
	c0.8,1,1.7,2,2.4,3.1C138.7,111,137.9,111.4,137.6,111z M138,108.9c-1-0.9-2.1-1.8-3.1-2.8c-0.4-0.4,0.2-1,0.6-0.6
	c1,1,2.1,1.9,3.1,2.8C139,108.7,138.4,109.2,138,108.9z M138.1,107.1c-0.7-1.2-2-1.9-2.9-2.9c-0.4-0.4,0.3-1,0.6-0.6
	c0.9,1.1,2.3,1.8,3.1,3.1C139.1,107.1,138.3,107.5,138.1,107.1z M139,108.8c0.9-0.9,2-1.4,2.7-2.5c0.3-0.4,1,0,0.7,0.4
	c-0.7,1.1-2,1.7-2.9,2.7C139.2,109.8,138.6,109.2,139,108.8z M139.6,110.9c0.7-1.1,1.2-2.3,2.1-3.2c0.4-0.4,1,0.2,0.6,0.6
	c-0.9,0.9-1.4,2-2,3C140,111.8,139.3,111.4,139.6,110.9z M142.7,110.9c-0.5,0.3-0.9,0.7-1.3,1.2c-0.3,0.4-1-0.2-0.6-0.6
	c0.4-0.5,0.9-0.9,1.5-1.3c0.2-0.1,0.5,0,0.6,0.1C143,110.6,142.9,110.8,142.7,110.9z"/>
<path d="M138.8,98.4c-0.6,0.7-1.3,1.5-1.9,2.2c0.7,0.5,1.4,1.1,2,1.8c0.5-0.8,1.3-1.3,1.9-2C140.1,99.8,139.5,99,138.8,98.4"/>
<path d="M160.5,84.6c-4.8-0.3-9.5-0.6-14.2-0.8c-0.4,0-1.3,0.9-1.3,1.3c0,3.8,0.2,7.7,0.3,11.3c2.2,0.5,4,0.8,5.8,1.2
	c0-1.1,0-2.2,0-3.3c0.1-2.1,0.9-2.6,3.6-1.5c-1.2,0.2-1.9,0.3-2.6,0.4c1.2,0.7,3,0.7,2.1,2.9c-0.6,0.1-1.1,0.2-2,0.4
	c0.9,0.2,1.5,0.4,2,0.5c-0.2,0.4-0.4,0.7-0.7,1.3c2.5-0.1,0.6-2.5,2-3c0.4,1.5,0.4,3.4,1.3,4.2c0.9,0.8,2.8,0.3,4.8,0.5
	C160.1,94.7,159.3,89.8,160.5,84.6 M145.9,90.9c1.1-0.1,2.3-0.1,3.4-0.3c0.5-0.1,0.8,0.7,0.2,0.8c-1.2,0.2-2.4,0.2-3.6,0.3
	C145.3,91.7,145.4,90.9,145.9,90.9z M146.3,92c1.1-0.2,2.1-0.1,3.2-0.1c0.6,0,0.6,0.8,0,0.8c-1,0-2-0.1-3,0.1
	C146,92.9,145.7,92.1,146.3,92z M146.6,93.9c1.1-0.1,2.2-0.1,3.3-0.1c0.6,0,0.6,0.8,0,0.8c-1.1,0-2.2,0-3.3,0.1
	C146.1,94.7,146.1,93.9,146.6,93.9z M150.2,96.1c-0.8,0.1-1.6,0.1-2.4,0.1c-0.6,0-0.6-0.8,0-0.8c0.7,0,1.5,0.1,2.2-0.1
	C150.6,95.2,150.8,96,150.2,96.1z M150.2,90.1c-1.3,0.1-2.6,0.1-3.9,0.1c-0.6,0-0.6-0.8,0-0.8c1.3,0,2.6,0.1,3.9-0.1
	C150.8,89.2,150.7,90.1,150.2,90.1z M151.9,88.9h-5.1c-0.6,0-0.6-0.8,0-0.8h5.1C152.4,88.1,152.4,88.9,151.9,88.9z M152.7,87.5h-6.3
	c-0.6,0-0.6-0.8,0-0.8h6.3C153.3,86.6,153.3,87.5,152.7,87.5z M156.5,86c-3.3,0.4-6.6,0.2-10,0c-0.6,0-0.6-0.9,0-0.8
	c3.3,0.2,6.7,0.4,10,0C157.1,85.1,157.1,86,156.5,86z M159.1,91.6c-0.8,0.3-1.3,0.4-1.9,0.6c-0.1-0.7-0.2-1.5-0.4-2.4
	C158.5,89.7,159.4,90.1,159.1,91.6z"/>
<path d="M129.7,83.2c0,3.1,0,6.1,0,9.1c0,2-0.2,4-0.1,6c0.1,1.3-0.4,1.7-2.1,1.2c0-4-0.1-8.2,0-12.3c0.1-2.2-0.7-3.2-3-2.9
	c-0.4,0.1-0.9,0-1.3-0.1c-1.6-0.3-2.4,0.2-2.3,2c0.1,1.1-0.2,2.3,0,3.4c0.7,2.9-1.3,4.6-2.8,7.3c-0.1-2.4-1.1-3.4-2.9-3.6
	c-0.3,0-0.6-1-0.7-1.6c-0.2-2.4-0.3-4.9-0.5-7.2c-0.8-0.8-2.9,0.4-2.3-2.2C117.5,82.6,123.4,82.9,129.7,83.2"/>
<path d="M161.2,102.3c0,2.8,0,5.5,0,8.6c-0.2-2.1-0.6-3.8-0.5-5.4c0.1-2.2-1-2.5-2.7-2.6c-3.6,0-7.3-0.1-10.9-0.2
	c-0.3,0-0.7,0-1-0.4C151,102.3,155.9,102.3,161.2,102.3"/>
<path d="M131.3,73.9c1.8,1.5,3.1,2.6,4.4,3.7c-1.3,0.9-2.5,1.7-4,2.8C131.6,78.2,131.5,76.4,131.3,73.9"/>
<path d="M141.9,80.5c-1.5-1.3-2.7-2.3-4-3.3c2.4,0.7,2.8-2.1,4.9-2.4C142.6,76.7,142.3,78.4,141.9,80.5"/>
<path d="M121.6,73.3c1.1,1.5,1.8,2.7,2.7,3.9c-0.9,0.8-1.7,1.5-2.7,2.4C121.6,77.5,121.6,75.6,121.6,73.3"/>
<path d="M119.5,73.5c0,2.1,0,4.2,0,6.4C116.3,77.5,116.3,76.5,119.5,73.5L119.5,73.5"/>
<path d="M140.1,81.6c-1.9,0-3.6,0-5.4,0C136.9,78.4,137.6,78.4,140.1,81.6"/>
<path d="M129.3,74.9c0,1.7,0,3.4,0,5.1C126.4,78,126.4,77.1,129.3,74.9"/>
<path d="M145.8,73.6c-0.6,1.2-0.8,2.2,0.2,3.3c1.3,1.5,0,2.1-1.6,3.3c0.2-2.5,0.3-4.5,0.5-6.5C145,73.6,145.6,73.7,145.8,73.6
	C145.9,73.6,145.8,73.6,145.8,73.6"/>
<path d="M151.2,81.2c-2.6-2.6-2.5-3.1,0.3-5.8C151.4,77.4,151.3,79.1,151.2,81.2"/>
<path d="M139.8,74.1c-2.9,2.7-2.9,2.7-5.7-0.3C136.1,73.8,137.7,73.9,139.8,74.1"/>
<path d="M119,125.3c-2-0.1-4-0.3-6-0.4c0-0.4,0.1-0.7,0.1-1.1c1,0.2,2,0.4,3,0.5c1,0.1,2,0,3,0C119,124.7,119,125,119,125.3"/>
<path d="M80.1,107.5c3.2,0,6.5,0,9.7,0c0,0.1,0,0.3,0,0.4c-3.3,0-6.5,0-9.8,0C80,107.7,80,107.6,80.1,107.5"/>
<path d="M131.8,123.6c0,0.3,0.1,0.9,0.2,1.6c-1.6-0.2-3.1-0.5-4.7-0.7c0-0.3,0.1-0.6,0.1-0.8C128.8,123.6,130.2,123.6,131.8,123.6"
	/>
<path d="M129.8,102.8c-2.3-0.1-4.7-0.2-7-0.3c0-0.1,0-0.2,0-0.3c2.3,0,4.7,0,7,0C129.8,102.4,129.8,102.6,129.8,102.8"/>
<path d="M125.4,75.6c-0.7-0.9-1.1-1.5-1.9-2.5c1.5,0.1,2.5,0.1,4,0.2C126.7,74.2,126.2,74.8,125.4,75.6"/>
<path d="M123.7,81.2c0.8-1,1.2-1.5,1.8-2.2c0.6,0.8,1.1,1.4,1.8,2.4C126,81.3,125.2,81.2,123.7,81.2"/>
<path d="M117.3,102.5c-1.6,0.1-3.3,0.3-4.9,0.4c0-0.2,0-0.4-0.1-0.6c1.6,0,3.3,0,4.9,0C117.3,102.4,117.3,102.5,117.3,102.5"/>
<path d="M117.3,80.8c-1.5,0-2.3,0-3.5,0c0.7-0.9,1.2-1.5,1.8-2.3C116.1,79.3,116.6,79.9,117.3,80.8"/>
<path d="M108.6,62.1c-0.1,0-0.2,0-0.3,0c-2.4,0.1-4.7-0.3-7-0.8c-1.6-0.1-3.3-0.2-4.9-0.3c-0.4,0-0.8-0.2-1.1-0.4
	c-3.5-0.2-7-0.4-10.6-0.6c-0.5,0-0.8-0.2-1.1-0.4C77.3,59.1,71,58.5,64.7,58c-0.4,0-1-0.3-1.3-0.6c-1.6-1.6-2.2-0.6-2.9,1.2
	c17.6,1.1,35,3.8,52.5,4.8l0.1-0.6C111.6,62.6,110.2,62.3,108.6,62.1"/>
<path d="M140.9,38.6c0,5.4,0,10.8,0,16.5c-3.2-0.3-5.9-0.6-9.3-0.9c2.6-2,4.7-3.8,6.8-5.3c1.5-1.1,2-2.3,1.5-4.4
	c-5.6,3.8-11,7.5-16.4,11.2c-0.1-0.2-0.2-0.3-0.4-0.5c2.3-1.8,4.5-3.7,6.9-5.3c3.1-2.2,6.4-4.1,9.5-6.3c0.5-0.3,0.7-1.1,0.8-1.8
	c0.1-1.1,0-2.2,0-3.3C140.6,38.6,140.8,38.6,140.9,38.6"/>
<path d="M150,55.9c-2.2-0.2-4.5-0.3-6.7-0.7c-0.4-0.1-1-0.9-1.1-1.5c-0.1-1.8-0.1-3.5-0.1-5.8c2.9,2.6,5.5,5,8.2,7.4
	C150.2,55.5,150.1,55.7,150,55.9"/>
<polyline points="128.4,103.9 128.5,111.6 129,111.7 129,103.9 128.4,103.9 "/>
<polyline points="126.4,103.9 125.8,103.9 126,111.6 "/>
<polyline points="123.4,103.9 122.8,103.9 122.9,111.6 "/>
<polyline points="117.8,103.9 117.2,103.9 117.3,111.6 "/>
<polyline points="115.2,103.9 114.7,103.9 114.8,111.6 "/>
<polyline points="112.6,103.9 112.1,103.9 112.2,111.6 "/>
<polyline points="146.1,103.9 146.2,111.6 146.6,111.7 146.6,103.9 146.1,103.9 "/>
<polyline points="148.7,103.9 148.8,111.6 149.2,111.7 149.2,103.9 148.7,103.9 "/>
<polyline points="151.2,103.9 151.4,111.6 151.8,111.7 151.8,103.9 151.2,103.9 "/>
<polyline points="153.4,103.9 153.5,111.6 153.9,111.7 153.9,103.9 153.4,103.9 "/>
<polyline points="156,103.9 156.1,111.6 156.5,111.7 156.5,103.9 156,103.9 "/>
<g>
	<defs>
		<rect id="SVGID_1_" y="0.5" width="220.5" height="220.5"/>
	</defs>
	<clipPath id="SVGID_2_">
		<use xlink:href="#SVGID_1_"  style="overflow:visible;"/>
	</clipPath>
	<polyline class="st1" points="158.6,103.9 158.7,111.6 159.1,111.7 159.1,103.9 158.6,103.9 	"/>
	<path class="st2" d="M3.6,102.1L101.6,4c4.7-4.7,12.5-4.7,17.2,0l98.1,98.1c4.7,4.7,4.7,12.5,0,17.2l-98.1,98.1
		c-4.7,4.7-12.5,4.7-17.2,0L3.6,119.4C-1.2,114.6-1.2,106.9,3.6,102.1 M7.6,106.1l98.1-98.1c2.5-2.5,6.7-2.5,9.2,0l98.1,98.1
		c2.5,2.5,2.5,6.7,0,9.2l-98.1,98.1c-2.5,2.5-6.7,2.5-9.2,0L7.6,115.4C5,112.8,5,108.7,7.6,106.1z"/>
</g>
<path class="st3" d="M87.8,136.4v-0.7c0-1.3-1.2-1.5-2.6-1.5h-1.5v4.1h1.5C86.6,138.3,87.8,137.7,87.8,136.4"/>
<path class="st3" d="M105.8,144.4v-8.5c0-1.3-1.2-1.9-2.6-1.9c-1.4,0-2.6,0.5-2.6,1.9v8.5c0,1.3,1.2,1.9,2.6,1.9
	C104.6,146.3,105.8,145.7,105.8,144.4"/>
<path class="st3" d="M68.5,134c-1.4,0-2.6,0.5-2.6,1.9v8.5c0,1.3,1.2,1.9,2.6,1.9c1.4,0,2.6-0.5,2.6-1.9v-8.5
	C71.1,134.6,69.9,134,68.5,134"/>
<path class="st3" d="M51,134.3h-2.6V146H51c1.4,0,2.6-0.5,2.6-1.9v-8C53.6,134.8,52.4,134.3,51,134.3"/>
<path class="st3" d="M104.5,200.5c0,0.8,0.6,1.4,1.3,1.4c0.8,0,1.4-0.5,1.4-1.4c0-0.8-0.6-1.4-1.4-1.4
	C105.1,199.2,104.5,199.7,104.5,200.5"/>
<path class="st3" d="M86.2,141.8h-2.4v4.4h2.4c1.4,0,2.6-0.5,2.6-1.8v-0.9C88.8,142.3,87.6,141.8,86.2,141.8"/>
<path class="st3" d="M137.6,134c-1.4,0-2.6,0.5-2.6,1.9v8.5c0,1.3,1.2,1.9,2.6,1.9c1.4,0,2.6-0.5,2.6-1.9v-8.5
	C140.2,134.6,139,134,137.6,134"/>
<path class="st3" d="M171.8,134c-1.4,0-2.6,0.5-2.6,1.9v8.5c0,1.3,1.2,1.9,2.6,1.9c1.4,0,2.6-0.5,2.6-1.9v-8.5
	C174.4,134.6,173.2,134,171.8,134"/>
<path class="st3" d="M97.4,122.3c17.9-1.9,35.8-3.8,52.5-5.7L5.6,120l4.7,4.5h3.5l91.2,91.2c2.6,2.6,6.8,2.6,9.4,0l91.2-91.2h1.8
	l5.7-7.2L97.4,122.3 M174.8,124.7h2.6c0.6,0,0.8,0.4,0.4,0.9l-1.9,2.6c-0.3,0.4-0.7,0.8-1.3,0.8h-2.2c-0.6,0-0.7-0.3-0.5-0.8
	l1.5-2.6C173.8,125,174.2,124.7,174.8,124.7z M167.3,128.2l1-2.6c0.2-0.5,0.5-0.9,1.1-0.9h2.6c0.6,0,0.8,0.4,0.6,0.9l-1.5,2.6
	c-0.3,0.5-0.5,0.8-1.1,0.8h-2.2C167.3,129,167.1,128.7,167.3,128.2z M135.5,128.2l1.1-2.6c0.2-0.5,0.6-0.9,1.2-0.9h3.1
	c0.6,0,0.8,0.4,0.4,0.9l-2,2.9c-0.2,0.3-0.5,0.6-1.1,0.6H136C135.5,129,135.3,128.8,135.5,128.2z M113.6,202.8v0.1h-1.4
	c-0.4-0.6-0.8-1.2-1.2-1.9l-0.7,0.8v1.1h-1.1v-4.7h1.1v2l1.9-2h1.4v0.1l-1.8,1.9L113.6,202.8z M109.1,192.2
	c-1.5,0.3-2.9,0.9-4.1,1.9c-1.7,1.5-2.8,3.5-3,5.6l-3.5,0c0.3-3.1,1.7-6.1,4.3-8.3c1.6-1.4,3.6-2.3,5.8-2.7c1-0.2,1.9,0.5,2,1.4
	C110.7,191.1,110.1,192,109.1,192.2z M108.4,200.5c0,1.4-1,2.5-2.5,2.5c-1.6,0-2.5-1.1-2.5-2.5s1-2.5,2.5-2.5
	C107.4,198.1,108.4,199.2,108.4,200.5z M58.3,145c0,2.5-2,4.9-7.3,4.9h-6.6c-0.5,0-0.7-0.3-0.7-0.9v-17.8c0-0.6,0.2-0.9,0.8-0.9H51
	c5.4,0,7.3,2.4,7.3,4.9V145z M75.8,145.2c0,2.5-2,4.9-7.3,4.9c-5.4,0-7.3-2.4-7.3-4.9v-10.2c0-2.5,1.9-4.9,7.3-4.9
	c5.4,0,7.3,2.4,7.3,4.9V145.2z M93.4,145.2c0,2.5-1.9,4.7-7.3,4.7h-6.3c-0.6,0-0.8-0.3-0.8-0.9v-17.8c0-0.6,0.2-0.9,0.8-0.9h5.4
	c5.4,0,7.3,2,7.3,4.5v1.6c0,1.4-0.7,2.4-2,3.2c1.8,0.7,2.9,1.9,2.9,3.4V145.2z M95.9,145.2v-10.2c0-2.5,1.9-4.9,7.3-4.9
	c5.4,0,7.3,2.4,7.3,4.9v10.2c0,2.5-1.9,4.9-7.3,4.9C97.8,150.1,95.9,147.7,95.9,145.2z M110.6,212.8L110.6,212.8
	c-3.5,0-6.9-1.5-9.3-4.3c-1.7-2-2.6-4.4-2.8-6.9l3.5,0c0.2,1.6,0.8,3.3,2,4.6c2.5,3,6.7,3.8,10.1,2.3l1.8,3.1
	C114.2,212.4,112.4,212.8,110.6,212.8z M113.7,199.2v-1h4.1v1h-1.5v3.7h-1.1v-3.7H113.7z M118.4,209.9c-0.3,0.2-0.6,0.5-0.9,0.7
	l-1.8-3.1c0.1-0.1,0.2-0.2,0.4-0.3c3.6-3.1,4.1-8.5,1-12.1l2.7-2.3C124.2,198,123.5,205.6,118.4,209.9z M127.5,136.1
	c0,0.6-0.2,0.9-0.8,0.9h-3c-0.6,0-0.8-0.3-0.8-0.9v-0.2c0-1.3-1-1.9-2.4-1.9c-1.4,0-2.4,0.5-2.4,1.9v8.5c0,1.3,1,1.9,2.4,1.9
	c1.4,0,2.4-0.5,2.4-1.9v-1.2h-2.4c-0.6,0-0.9-0.2-0.9-0.8v-2.2c0-0.6,0.3-0.8,0.9-0.8h6.1c0.6,0,0.9,0.2,0.9,0.8v5.1
	c0,2.5-1.7,4.9-7.1,4.9c-5.4,0-7.1-2.4-7.1-4.9v-10.2c0-2.5,1.7-4.9,7.1-4.9c5.4,0,7.1,2.4,7.1,4.9V136.1z M144.9,145.2
	c0,2.5-2,4.9-7.3,4.9c-5.4,0-7.3-2.4-7.3-4.9v-10.2c0-2.5,1.9-4.9,7.3-4.9c5.4,0,7.3,2.4,7.3,4.9V145.2z M162.8,149.9h-4
	c-0.6,0-0.9-0.4-1.2-0.9l-4.5-7h-0.3v7c0,0.6-0.2,0.9-0.8,0.9h-3.1c-0.6,0-0.8-0.3-0.8-0.9v-17.8c0-0.6,0.2-0.9,0.8-0.9h3.1
	c0.6,0,0.8,0.3,0.8,0.9v7.3h0.3l4.4-7.3c0.3-0.5,0.7-0.9,1.3-0.9h3.3c0.6,0,0.7,0.4,0.4,0.9l-5.4,8.7l6.2,9.1
	C163.5,149.5,163.4,149.9,162.8,149.9z M179.1,145.2c0,2.5-1.9,4.9-7.3,4.9c-5.4,0-7.3-2.4-7.3-4.9v-10.2c0-2.5,1.9-4.9,7.3-4.9
	c5.4,0,7.3,2.4,7.3,4.9V145.2z"/>
<polyline points="61.2,115.8 4.6,113.5 2.9,107.2 61.2,113.2 61.2,115.8 "/>
<polyline points="173.2,112.5 217.6,109.8 215.9,106.5 173.2,112.5 "/>
<polyline points="165,65.8 142,44.9 141.8,42 142.5,43.1 142.4,44.2 165.2,65.2 165,65.8 "/>
<polyline points="123,55.5 100.7,73.3 101.4,73.3 123.4,56 123,55.5 "/>
</svg>
