<svg width="588" height="586" viewBox="0 0 588 586" fill="none" xmlns="http://www.w3.org/2000/svg">
<path fill-rule="evenodd" clip-rule="evenodd" d="M402 187H185V417C185 428.046 193.954 437 205 437H382C393.046 437 402 428.046 402 417V187ZM209 204C203.477 204 199 208.477 199 214V313H241V214C241 208.477 236.523 204 231 204H209ZM349 214C349 208.477 353.477 204 359 204H381C386.523 204 391 208.477 391 214V313H349V214ZM263 204C257.477 204 253 208.477 253 214V313H338V214C338 208.477 333.523 204 328 204H263ZM293.5 403C308.136 403 320 391.136 320 376.5C320 361.864 308.136 350 293.5 350C278.864 350 267 361.864 267 376.5C267 391.136 278.864 403 293.5 403ZM293.5 389C300.404 389 306 383.404 306 376.5C306 369.596 300.404 364 293.5 364C286.596 364 281 369.596 281 376.5C281 383.404 286.596 389 293.5 389ZM196.727 358.265C196.751 358.779 196.775 359.305 196.799 359.842C197.161 367.822 197.635 378.29 200.284 387.397C201.977 393.214 204.645 398.873 209.023 403.228C213.481 407.663 219.464 410.495 227.245 410.992C234.596 411.461 240.773 410.512 245.899 408.231C251.062 405.934 254.932 402.387 257.783 398.039C262.704 390.532 264.554 380.673 265.267 370.671C265.424 368.467 263.707 366.598 261.5 366.5C259.293 366.402 257.433 368.113 257.271 370.316C256.576 379.777 254.87 387.89 251.092 393.653C249.005 396.836 246.282 399.305 242.648 400.922C238.977 402.555 234.154 403.417 227.755 403.008C221.786 402.627 217.665 400.541 214.665 397.557C211.584 394.492 209.44 390.229 207.966 385.162C205.615 377.08 205.192 367.954 204.825 360.027C204.789 359.247 204.753 358.478 204.717 357.722C204.609 355.516 202.704 353.85 200.5 354C198.296 354.15 196.624 356.058 196.727 358.265Z" fill="white"/>
<path fill-rule="evenodd" clip-rule="evenodd" d="M381.138 159.404C375.411 165.321 367.385 169 358.5 169C344.074 169 331.912 159.302 328.18 146.07C317.076 144.725 305.258 144 293 144C244.359 144 202.651 155.416 185 171.662V177H402V172.613C397.043 167.739 389.94 163.279 381.138 159.404Z" fill="white"/>
<circle cx="358.5" cy="137.5" r="27.5" fill="white"/>
<path fill-rule="evenodd" clip-rule="evenodd" d="M257 70.5C249.238 70.5 247.719 74.1062 247.5 74.8891V74.8906V74.8961V74.9016V74.9072V74.9127V74.9183V74.9239V74.9296V74.9352V74.9409V74.9466V74.9524V74.9582V74.964V74.9698V74.9756V74.9815V74.9874V74.9934V74.9993V75.0053V75.0114V75.0174V75.0235V75.0296V75.0357V75.0418V75.048V75.0542V75.0605V75.0667V75.073V75.0793V75.0857V75.092V75.0984V75.1049V75.1113V75.1178V75.1243V75.1308V75.1374V75.144V75.1506V75.1572V75.1639V75.1706V75.1773V75.184V75.1908V75.1976V75.2044V75.2113V75.2181V75.2251V75.232V75.2389V75.2459V75.2529V75.26V75.267V75.2741V75.2813V75.2884V75.2956V75.3028V75.31V75.3173V75.3245V75.3318V75.3392V75.3465V75.3539V75.3613V75.3688V75.3763V75.3837V75.3913V75.3988V75.4064V75.414V75.4216V75.4293V75.437V75.4447V75.4524V75.4602V75.4679V75.4758V75.4836V75.4915V75.4994V75.5073V75.5152V75.5232V75.5312V75.5392V75.5473V75.5554V75.5635V75.5716V75.5798V75.588V75.5962V75.6044V75.6127V75.621V75.6293V75.6376V75.646V75.6544V75.6628V75.6713V75.6798V75.6883V75.6968V75.7054V75.714V75.7226V75.7312V75.7399V75.7486V75.7573V75.766V75.7748V75.7836V75.7924V75.8013V75.8101V75.8191V75.828V75.8369V75.8459V75.8549V75.864V75.873V75.8821V75.8912V75.9004V75.9095V75.9187V75.928V75.9372V75.9465V75.9558V75.9651V75.9745V75.9838V75.9932V76.0027V76.0121V76.0216V76.0311V76.0407V76.0502V76.0598V76.0694V76.0791V76.0888V76.0985V76.1082V76.1179V76.1277V76.1375V76.1473V76.1572V76.1671V76.177V76.1869V76.1969V76.2068V76.2169V76.2269V76.237V76.2471V76.2572V76.2673V76.2775V76.2877V76.2979V76.3081V76.3184V76.3287V76.339V76.3494V76.3598V76.3702V76.3806V76.3911V76.4016V76.4121V76.4226V76.4332V76.4438V76.4544V76.465V76.4757V76.4864V76.4971V76.5078V76.5186V76.5294V76.5402V76.5511V76.562V76.5729V76.5838V76.5948V76.6057V76.6167V76.6278V76.6388V76.6499V76.661V76.6722V76.6833V76.6945V76.7057V76.717V76.7283V76.7395V76.7509V76.7622V76.7736V76.785V76.7964V76.8079V76.8193V76.8308V76.8424V76.8539V76.8655V76.8771V76.8887V76.9004V76.9121V76.9238V76.9355V76.9473V76.9591V76.9709V76.9827V76.9946V77.0065V77.0184V77.0304V77.0423V77.0543V77.0664V77.0784V77.0905V77.1026V77.1147V77.1269V77.139V77.1512V77.1635V77.1757V77.188V77.2003V77.2127V77.225V77.2374V77.2498V77.2622V77.2747V77.2872V77.2997V77.3123V77.3248V77.3374V77.35V77.3627V77.3753V77.388V77.4008V77.4135V77.4263V77.4391V77.4519V77.4648V77.4776V77.4905V77.5035V77.5164V77.5294V77.5424V77.5554V77.5685V77.5816V77.5947V77.6078V77.621V77.6342V77.6474V77.6606V77.6739V77.6872V77.7005V77.7138V77.7272V77.7406V77.754V77.7674V77.7809V77.7944V77.8079V77.8215V77.835V77.8486V77.8622V77.8759V77.8896V77.9033V77.917V77.9307V77.9445V77.9583V77.9722V77.986V77.9999V78.0138V78.0277V78.0417V78.0557V78.0697V78.0837V78.0978V78.1118V78.1259V78.1401V78.1542V78.1684V78.1826V78.1969V78.2111V78.2254V78.2397V78.2541V78.2684V78.2828V78.2973V78.3117V78.3262V78.3407V78.3552V78.3697V78.3843V78.3989V78.4135V78.4281V78.4428V78.4575V78.4722V78.487V78.5018V78.5166V78.5314V78.5462V78.5611V78.576V78.5909V78.6059V78.6209V78.6359V78.6509V78.6659V78.681V78.6961V78.7113V78.7264V78.7416V78.7568V78.772V78.7873V78.8026V78.8179V78.8332V78.8486V78.8639V78.8793V78.8948V78.9102V78.9257V78.9412V78.9568V78.9723V78.9879V79.0035V79.0192V79.0348V79.0505V79.0662V79.082V79.0977V79.1135V79.1293V79.1452V79.161V79.1769V79.1928V79.2088V79.2247V79.2407V79.2567V79.2728V79.2888V79.3049V79.3211V79.3372V79.3534V79.3696V79.371C247.66 79.5249 248.028 79.8019 248.777 80.1685C249.613 80.5778 250.601 80.9486 251.832 81.4022L251.988 81.4598L251.988 81.4598C253.093 81.8665 254.429 82.3587 255.637 82.9443L292.5 100.817L329.363 82.9443C330.571 82.3587 331.907 81.8665 333.012 81.4598L333.168 81.4022C334.399 80.9486 335.387 80.5778 336.223 80.1685C336.972 79.8019 337.34 79.5249 337.5 79.371V79.3696V79.3534V79.3372V79.3211V79.3049V79.2888V79.2728V79.2567V79.2407V79.2247V79.2088V79.1928V79.1769V79.161V79.1452V79.1293V79.1135V79.0977V79.082V79.0662V79.0505V79.0348V79.0192V79.0035V78.9879V78.9723V78.9568V78.9412V78.9257V78.9102V78.8948V78.8793V78.8639V78.8486V78.8332V78.8179V78.8026V78.7873V78.772V78.7568V78.7416V78.7264V78.7113V78.6961V78.681V78.6659V78.6509V78.6359V78.6209V78.6059V78.5909V78.576V78.5611V78.5462V78.5314V78.5166V78.5018V78.487V78.4722V78.4575V78.4428V78.4281V78.4135V78.3989V78.3843V78.3697V78.3552V78.3407V78.3262V78.3117V78.2973V78.2828V78.2684V78.2541V78.2397V78.2254V78.2111V78.1969V78.1826V78.1684V78.1542V78.1401V78.1259V78.1118V78.0978V78.0837V78.0697V78.0557V78.0417V78.0277V78.0138V77.9999V77.986V77.9722V77.9583V77.9445V77.9307V77.917V77.9033V77.8896V77.8759V77.8622V77.8486V77.835V77.8215V77.8079V77.7944V77.7809V77.7674V77.754V77.7406V77.7272V77.7138V77.7005V77.6872V77.6739V77.6606V77.6474V77.6342V77.621V77.6078V77.5947V77.5816V77.5685V77.5554V77.5424V77.5294V77.5164V77.5035V77.4905V77.4776V77.4648V77.4519V77.4391V77.4263V77.4135V77.4008V77.388V77.3753V77.3627V77.35V77.3374V77.3248V77.3123V77.2997V77.2872V77.2747V77.2622V77.2498V77.2374V77.225V77.2127V77.2003V77.188V77.1757V77.1635V77.1512V77.139V77.1269V77.1147V77.1026V77.0905V77.0784V77.0664V77.0543V77.0423V77.0304V77.0184V77.0065V76.9946V76.9827V76.9709V76.9591V76.9473V76.9355V76.9238V76.9121V76.9004V76.8887V76.8771V76.8655V76.8539V76.8424V76.8308V76.8193V76.8079V76.7964V76.785V76.7736V76.7622V76.7509V76.7395V76.7283V76.717V76.7057V76.6945V76.6833V76.6722V76.661V76.6499V76.6388V76.6278V76.6167V76.6057V76.5948V76.5838V76.5729V76.562V76.5511V76.5402V76.5294V76.5186V76.5078V76.4971V76.4864V76.4757V76.465V76.4544V76.4438V76.4332V76.4226V76.4121V76.4016V76.3911V76.3806V76.3702V76.3598V76.3494V76.339V76.3287V76.3184V76.3081V76.2979V76.2877V76.2775V76.2673V76.2572V76.2471V76.237V76.2269V76.2169V76.2068V76.1969V76.1869V76.177V76.1671V76.1572V76.1473V76.1375V76.1277V76.1179V76.1082V76.0985V76.0888V76.0791V76.0694V76.0598V76.0502V76.0407V76.0311V76.0216V76.0121V76.0027V75.9932V75.9838V75.9745V75.9651V75.9558V75.9465V75.9372V75.928V75.9187V75.9095V75.9004V75.8912V75.8821V75.873V75.864V75.8549V75.8459V75.8369V75.828V75.8191V75.8101V75.8013V75.7924V75.7836V75.7748V75.766V75.7573V75.7486V75.7399V75.7312V75.7226V75.714V75.7054V75.6968V75.6883V75.6798V75.6713V75.6628V75.6544V75.646V75.6376V75.6293V75.621V75.6127V75.6044V75.5962V75.588V75.5798V75.5716V75.5635V75.5554V75.5473V75.5392V75.5312V75.5232V75.5152V75.5073V75.4994V75.4915V75.4836V75.4758V75.4679V75.4602V75.4524V75.4447V75.437V75.4293V75.4216V75.414V75.4064V75.3988V75.3913V75.3837V75.3763V75.3688V75.3613V75.3539V75.3465V75.3392V75.3318V75.3245V75.3173V75.31V75.3028V75.2956V75.2884V75.2813V75.2741V75.267V75.26V75.2529V75.2459V75.2389V75.232V75.2251V75.2181V75.2113V75.2044V75.1976V75.1908V75.184V75.1773V75.1706V75.1639V75.1572V75.1506V75.144V75.1374V75.1308V75.1243V75.1178V75.1113V75.1049V75.0984V75.092V75.0857V75.0793V75.073V75.0667V75.0605V75.0542V75.048V75.0418V75.0357V75.0296V75.0235V75.0174V75.0114V75.0053V74.9993V74.9934V74.9874V74.9815V74.9756V74.9698V74.964V74.9582V74.9524V74.9466V74.9409V74.9352V74.9296V74.9239V74.9183V74.9127V74.9072V74.9016V74.8961V74.8906V74.8891C337.281 74.1062 335.762 70.5 328 70.5H327.939H327.878H327.817H327.756H327.695H327.634H327.573H327.511H327.45H327.389H327.328H327.266H327.205H327.144H327.082H327.021H326.959H326.898H326.836H326.775H326.713H326.652H326.59H326.528H326.467H326.405H326.343H326.281H326.22H326.158H326.096H326.034H325.972H325.91H325.849H325.787H325.725H325.663H325.601H325.539H325.477H325.415H325.352H325.29H325.228H325.166H325.104H325.042H324.98H324.917H324.855H324.793H324.731H324.669H324.606H324.544H324.482H324.419H324.357H324.295H324.232H324.17H324.108H324.045H323.983H323.921H323.858H323.796H323.733H323.671H323.608H323.546H323.484H323.421H323.359H323.296H323.234H323.171H323.109H323.046H322.984H322.921H322.859H322.796H322.734H322.671H322.609H322.546H322.484H322.421H322.359H322.296H322.234H322.171H322.109H322.046H321.984H321.921H321.859H321.796H321.734H321.671H321.609H321.546H321.484H321.422H321.359H321.297H321.234H321.172H321.109H321.047H320.985H320.922H320.86H320.797H320.735H320.673H320.61H320.548H320.486H320.424H320.361H320.299H320.237H320.174H320.112H320.05H319.988H319.926H319.863H319.801H319.739H319.677H319.615H319.553H319.491H319.429H319.367H319.305H319.243H319.181H319.119H319.057H318.995H318.933H318.871H318.809H318.748H318.686H318.624H318.562H318.501H318.439H318.377H318.316H318.254H318.192H318.131H318.069H318.008H317.946H317.885H317.823H317.762H317.701H317.639H317.578H317.517H317.456H317.394H317.333H317.272H317.211H317.15H317.089H317.028H316.967H316.906H316.845H316.784H316.723H316.663H316.602H316.541H316.48H316.42H316.359H316.299H316.238H316.178H316.117H316.057H315.996H315.936H315.876H315.816H315.755H315.695H315.635H315.575H315.515H315.455H315.395H315.335H315.275H315.216H315.156H315.096H315.036H314.977H314.917H314.858H314.798H314.739H314.68H314.62H314.561H314.502H314.443H314.383H314.324H314.265H314.206H314.148H314.089H314.03H313.971H313.912H313.854H313.795H313.737H313.678H313.62H313.562H313.503H313.445H313.387H313.329H313.271H313.213H313.155H313.097H313.039H312.981H312.924H312.866H312.808H312.751H312.693H312.636H312.579H312.521H312.464H312.407H312.35H312.293H312.236H312.179H312.122H312.066H312.009H311.952H311.896H311.839H311.783H311.727H311.67H311.614H311.558H311.502H311.446H311.39H311.334H311.279H311.223H311.167H311.112H311.056H311.001H310.946H310.891H310.835H310.78H310.725H310.67H310.616H310.561H310.506H310.451H310.397H310.342H310.288H310.234H310.18H310.125H310.071H310.017H309.964H309.91H309.856H309.802H309.749H309.695H309.642H309.589H309.535H309.482H309.429H309.376H309.323H309.271H309.218H309.165H309.113H309.06H309.008H308.956H308.904H308.852H308.8H308.748H308.696H308.644H308.593H308.541H308.49H308.438H308.387H308.336H308.285H308.234H308.183H308.132H308.082H308.031H307.981H307.93H307.88H307.83H307.78H307.73H307.68H307.63H307.58H307.531H307.481H307.432H307.383H307.333H307.284H307.235H307.186H307.138H307.089H307.041H306.992H306.944H306.895H306.847H306.799H306.751H306.704H306.656H306.608H306.561H306.513H306.466H306.419H306.372H306.325H306.278H306.231H306.185H306.138H306.092H306.046H306H305.953H305.908H305.862H305.816H305.77H305.725H305.68H305.634H305.589H305.544H305.499H305.455H305.41H305.365H305.321H305.277H305.233H305.189H305.145H305.101H305.057H305.014H304.97H304.927H304.884H304.841H304.798H304.755H304.712H304.669H304.627H304.585H304.542H304.5H304.458H304.417H304.375H304.333H304.292H304.251H304.209H304.168H304.128H304.087H304.046H304.006H303.965H303.925H303.885H303.845H303.805H303.765H303.726H303.686H303.647H303.608H303.569H303.53H303.491H303.452H303.414H303.375H303.337H303.299H303.261H303.223H303.186H303.148H303.111H303.073H303.036H302.999H302.963H302.926H302.889H302.853H302.817H302.781H302.745H302.709H302.673H302.638H302.602H302.567H302.532H302.497H302.462H302.427H302.393H302.359H302.324H302.29H302.256H302.223H302.189H302.156H302.122H302.089H302.056H302.023H301.991H301.958H301.926H301.893H301.861H301.829H301.798H301.766H301.735H301.703H301.672H301.641H301.61H301.58H301.549H301.519H301.489H301.459H301.429H301.399H301.369H301.34H301.311H301.282H301.253H301.224H301.195H301.167H301.139H301.111H301.083H301.055H301.027H301H298H295.5H289.5H287H284H283.973H283.945H283.917H283.889H283.861H283.833H283.805H283.776H283.747H283.718H283.689H283.66H283.631H283.601H283.571H283.541H283.511H283.481H283.451H283.42H283.39H283.359H283.328H283.297H283.265H283.234H283.202H283.171H283.139H283.107H283.074H283.042H283.009H282.977H282.944H282.911H282.878H282.844H282.811H282.777H282.744H282.71H282.676H282.641H282.607H282.573H282.538H282.503H282.468H282.433H282.398H282.362H282.327H282.291H282.255H282.219H282.183H282.147H282.111H282.074H282.037H282.001H281.964H281.927H281.889H281.852H281.814H281.777H281.739H281.701H281.663H281.625H281.586H281.548H281.509H281.47H281.431H281.392H281.353H281.314H281.274H281.235H281.195H281.155H281.115H281.075H281.035H280.994H280.954H280.913H280.872H280.832H280.791H280.749H280.708H280.667H280.625H280.583H280.542H280.5H280.458H280.415H280.373H280.331H280.288H280.245H280.202H280.159H280.116H280.073H280.03H279.986H279.943H279.899H279.855H279.811H279.767H279.723H279.679H279.635H279.59H279.545H279.501H279.456H279.411H279.366H279.32H279.275H279.23H279.184H279.138H279.092H279.047H279H278.954H278.908H278.862H278.815H278.769H278.722H278.675H278.628H278.581H278.534H278.487H278.439H278.392H278.344H278.296H278.249H278.201H278.153H278.105H278.056H278.008H277.959H277.911H277.862H277.814H277.765H277.716H277.667H277.617H277.568H277.519H277.469H277.42H277.37H277.32H277.27H277.22H277.17H277.12H277.07H277.019H276.969H276.918H276.868H276.817H276.766H276.715H276.664H276.613H276.562H276.51H276.459H276.407H276.356H276.304H276.252H276.2H276.148H276.096H276.044H275.992H275.94H275.887H275.835H275.782H275.729H275.677H275.624H275.571H275.518H275.465H275.411H275.358H275.305H275.251H275.198H275.144H275.09H275.036H274.983H274.929H274.875H274.82H274.766H274.712H274.658H274.603H274.549H274.494H274.439H274.384H274.33H274.275H274.22H274.165H274.109H274.054H273.999H273.944H273.888H273.833H273.777H273.721H273.666H273.61H273.554H273.498H273.442H273.386H273.33H273.273H273.217H273.161H273.104H273.048H272.991H272.934H272.878H272.821H272.764H272.707H272.65H272.593H272.536H272.479H272.421H272.364H272.307H272.249H272.192H272.134H272.076H272.019H271.961H271.903H271.845H271.787H271.729H271.671H271.613H271.555H271.497H271.438H271.38H271.322H271.263H271.205H271.146H271.088H271.029H270.97H270.911H270.852H270.794H270.735H270.676H270.617H270.557H270.498H270.439H270.38H270.32H270.261H270.202H270.142H270.083H270.023H269.964H269.904H269.844H269.784H269.725H269.665H269.605H269.545H269.485H269.425H269.365H269.305H269.245H269.184H269.124H269.064H269.004H268.943H268.883H268.822H268.762H268.701H268.641H268.58H268.52H268.459H268.398H268.337H268.277H268.216H268.155H268.094H268.033H267.972H267.911H267.85H267.789H267.728H267.667H267.606H267.544H267.483H267.422H267.361H267.299H267.238H267.177H267.115H267.054H266.992H266.931H266.869H266.808H266.746H266.684H266.623H266.561H266.499H266.438H266.376H266.314H266.252H266.191H266.129H266.067H266.005H265.943H265.881H265.819H265.757H265.695H265.633H265.571H265.509H265.447H265.385H265.323H265.261H265.199H265.137H265.074H265.012H264.95H264.888H264.826H264.763H264.701H264.639H264.576H264.514H264.452H264.39H264.327H264.265H264.203H264.14H264.078H264.015H263.953H263.891H263.828H263.766H263.703H263.641H263.578H263.516H263.454H263.391H263.329H263.266H263.204H263.141H263.079H263.016H262.954H262.891H262.829H262.766H262.704H262.641H262.579H262.516H262.454H262.391H262.329H262.266H262.204H262.141H262.079H262.016H261.954H261.891H261.829H261.766H261.704H261.641H261.579H261.516H261.454H261.392H261.329H261.267H261.204H261.142H261.079H261.017H260.955H260.892H260.83H260.768H260.705H260.643H260.581H260.518H260.456H260.394H260.331H260.269H260.207H260.145H260.083H260.02H259.958H259.896H259.834H259.772H259.71H259.648H259.585H259.523H259.461H259.399H259.337H259.275H259.213H259.151H259.09H259.028H258.966H258.904H258.842H258.78H258.719H258.657H258.595H258.533H258.472H258.41H258.348H258.287H258.225H258.164H258.102H258.041H257.979H257.918H257.856H257.795H257.734H257.672H257.611H257.55H257.489H257.427H257.366H257.305H257.244H257.183H257.122H257.061H257ZM287 61.5H289.5H295.5H298H301H301.027H301.055H301.083H301.111H301.139H301.167H301.195H301.224H301.253H301.282H301.311H301.34H301.369H301.399H301.429H301.459H301.489H301.519H301.549H301.58H301.61H301.641H301.672H301.703H301.735H301.766H301.798H301.829H301.861H301.893H301.926H301.958H301.991H302.023H302.056H302.089H302.122H302.156H302.189H302.223H302.256H302.29H302.324H302.359H302.393H302.427H302.462H302.497H302.532H302.567H302.602H302.638H302.673H302.709H302.745H302.781H302.817H302.853H302.889H302.926H302.963H302.999H303.036H303.073H303.111H303.148H303.186H303.223H303.261H303.299H303.337H303.375H303.414H303.452H303.491H303.53H303.569H303.608H303.647H303.686H303.726H303.765H303.805H303.845H303.885H303.925H303.965H304.006H304.046H304.087H304.128H304.168H304.209H304.251H304.292H304.333H304.375H304.417H304.458H304.5H304.542H304.585H304.627H304.669H304.712H304.755H304.798H304.841H304.884H304.927H304.97H305.014H305.057H305.101H305.145H305.189H305.233H305.277H305.321H305.365H305.41H305.455H305.499H305.544H305.589H305.634H305.68H305.725H305.77H305.816H305.862H305.908H305.953H306H306.046H306.092H306.138H306.185H306.231H306.278H306.325H306.372H306.419H306.466H306.513H306.561H306.608H306.656H306.704H306.751H306.799H306.847H306.895H306.944H306.992H307.041H307.089H307.138H307.186H307.235H307.284H307.333H307.383H307.432H307.481H307.531H307.58H307.63H307.68H307.73H307.78H307.83H307.88H307.93H307.981H308.031H308.082H308.132H308.183H308.234H308.285H308.336H308.387H308.438H308.49H308.541H308.593H308.644H308.696H308.748H308.8H308.852H308.904H308.956H309.008H309.06H309.113H309.165H309.218H309.271H309.323H309.376H309.429H309.482H309.535H309.589H309.642H309.695H309.749H309.802H309.856H309.91H309.964H310.017H310.071H310.125H310.18H310.234H310.288H310.342H310.397H310.451H310.506H310.561H310.616H310.67H310.725H310.78H310.835H310.891H310.946H311.001H311.056H311.112H311.167H311.223H311.279H311.334H311.39H311.446H311.502H311.558H311.614H311.67H311.727H311.783H311.839H311.896H311.952H312.009H312.066H312.122H312.179H312.236H312.293H312.35H312.407H312.464H312.521H312.579H312.636H312.693H312.751H312.808H312.866H312.924H312.981H313.039H313.097H313.155H313.213H313.271H313.329H313.387H313.445H313.503H313.562H313.62H313.678H313.737H313.795H313.854H313.912H313.971H314.03H314.089H314.148H314.206H314.265H314.324H314.383H314.443H314.502H314.561H314.62H314.68H314.739H314.798H314.858H314.917H314.977H315.036H315.096H315.156H315.216H315.275H315.335H315.395H315.455H315.515H315.575H315.635H315.695H315.755H315.816H315.876H315.936H315.996H316.057H316.117H316.178H316.238H316.299H316.359H316.42H316.48H316.541H316.602H316.663H316.723H316.784H316.845H316.906H316.967H317.028H317.089H317.15H317.211H317.272H317.333H317.394H317.456H317.517H317.578H317.639H317.701H317.762H317.823H317.885H317.946H318.008H318.069H318.131H318.192H318.254H318.316H318.377H318.439H318.501H318.562H318.624H318.686H318.748H318.809H318.871H318.933H318.995H319.057H319.119H319.181H319.243H319.305H319.367H319.429H319.491H319.553H319.615H319.677H319.739H319.801H319.863H319.926H319.988H320.05H320.112H320.174H320.237H320.299H320.361H320.424H320.486H320.548H320.61H320.673H320.735H320.797H320.86H320.922H320.985H321.047H321.109H321.172H321.234H321.297H321.359H321.422H321.484H321.546H321.609H321.671H321.734H321.796H321.859H321.921H321.984H322.046H322.109H322.171H322.234H322.296H322.359H322.421H322.484H322.546H322.609H322.671H322.734H322.796H322.859H322.921H322.984H323.046H323.109H323.171H323.234H323.296H323.359H323.421H323.484H323.546H323.608H323.671H323.733H323.796H323.858H323.921H323.983H324.045H324.108H324.17H324.232H324.295H324.357H324.419H324.482H324.544H324.606H324.669H324.731H324.793H324.855H324.917H324.98H325.042H325.104H325.166H325.228H325.29H325.352H325.415H325.477H325.539H325.601H325.663H325.725H325.787H325.849H325.91H325.972H326.034H326.096H326.158H326.22H326.281H326.343H326.405H326.467H326.528H326.59H326.652H326.713H326.775H326.836H326.898H326.959H327.021H327.082H327.144H327.205H327.266H327.328H327.389H327.45H327.511H327.573H327.634H327.695H327.756H327.817H327.878H327.939H328C340.356 61.5 345.833 68.5648 346.469 73.9742C346.49 74.1487 346.5 74.3243 346.5 74.5V74.5029V74.5059V74.5089V74.5119V74.515V74.5181V74.5212V74.5243V74.5275V74.5307V74.5339V74.5371V74.5404V74.5437V74.547V74.5504V74.5538V74.5572V74.5606V74.5641V74.5676V74.5711V74.5746V74.5782V74.5818V74.5854V74.5891V74.5928V74.5965V74.6002V74.604V74.6078V74.6116V74.6155V74.6193V74.6232V74.6272V74.6311V74.6351V74.6391V74.6432V74.6472V74.6513V74.6554V74.6596V74.6638V74.668V74.6722V74.6764V74.6807V74.685V74.6894V74.6937V74.6981V74.7026V74.707V74.7115V74.716V74.7205V74.7251V74.7296V74.7343V74.7389V74.7436V74.7482V74.753V74.7577V74.7625V74.7673V74.7721V74.777V74.7819V74.7868V74.7917V74.7967V74.8017V74.8067V74.8117V74.8168V74.8219V74.827V74.8322V74.8373V74.8426V74.8478V74.853V74.8583V74.8637V74.869V74.8744V74.8798V74.8852V74.8906V74.8961V74.9016V74.9072V74.9127V74.9183V74.9239V74.9296V74.9352V74.9409V74.9466V74.9524V74.9582V74.964V74.9698V74.9756V74.9815V74.9874V74.9934V74.9993V75.0053V75.0114V75.0174V75.0235V75.0296V75.0357V75.0418V75.048V75.0542V75.0605V75.0667V75.073V75.0793V75.0857V75.092V75.0984V75.1049V75.1113V75.1178V75.1243V75.1308V75.1374V75.144V75.1506V75.1572V75.1639V75.1706V75.1773V75.184V75.1908V75.1976V75.2044V75.2113V75.2181V75.2251V75.232V75.2389V75.2459V75.2529V75.26V75.267V75.2741V75.2813V75.2884V75.2956V75.3028V75.31V75.3173V75.3245V75.3318V75.3392V75.3465V75.3539V75.3613V75.3688V75.3763V75.3837V75.3913V75.3988V75.4064V75.414V75.4216V75.4293V75.437V75.4447V75.4524V75.4602V75.4679V75.4758V75.4836V75.4915V75.4994V75.5073V75.5152V75.5232V75.5312V75.5392V75.5473V75.5554V75.5635V75.5716V75.5798V75.588V75.5962V75.6044V75.6127V75.621V75.6293V75.6376V75.646V75.6544V75.6628V75.6713V75.6798V75.6883V75.6968V75.7054V75.714V75.7226V75.7312V75.7399V75.7486V75.7573V75.766V75.7748V75.7836V75.7924V75.8013V75.8101V75.8191V75.828V75.8369V75.8459V75.8549V75.864V75.873V75.8821V75.8912V75.9004V75.9095V75.9187V75.928V75.9372V75.9465V75.9558V75.9651V75.9745V75.9838V75.9932V76.0027V76.0121V76.0216V76.0311V76.0407V76.0502V76.0598V76.0694V76.0791V76.0888V76.0985V76.1082V76.1179V76.1277V76.1375V76.1473V76.1572V76.1671V76.177V76.1869V76.1969V76.2068V76.2169V76.2269V76.237V76.2471V76.2572V76.2673V76.2775V76.2877V76.2979V76.3081V76.3184V76.3287V76.339V76.3494V76.3598V76.3702V76.3806V76.3911V76.4016V76.4121V76.4226V76.4332V76.4438V76.4544V76.465V76.4757V76.4864V76.4971V76.5078V76.5186V76.5294V76.5402V76.5511V76.562V76.5729V76.5838V76.5948V76.6057V76.6167V76.6278V76.6388V76.6499V76.661V76.6722V76.6833V76.6945V76.7057V76.717V76.7283V76.7395V76.7509V76.7622V76.7736V76.785V76.7964V76.8079V76.8193V76.8308V76.8424V76.8539V76.8655V76.8771V76.8887V76.9004V76.9121V76.9238V76.9355V76.9473V76.9591V76.9709V76.9827V76.9946V77.0065V77.0184V77.0304V77.0423V77.0543V77.0664V77.0784V77.0905V77.1026V77.1147V77.1269V77.139V77.1512V77.1635V77.1757V77.188V77.2003V77.2127V77.225V77.2374V77.2498V77.2622V77.2747V77.2872V77.2997V77.3123V77.3248V77.3374V77.35V77.3627V77.3753V77.388V77.4008V77.4135V77.4263V77.4391V77.4519V77.4648V77.4776V77.4905V77.5035V77.5164V77.5294V77.5424V77.5554V77.5685V77.5816V77.5947V77.6078V77.621V77.6342V77.6474V77.6606V77.6739V77.6872V77.7005V77.7138V77.7272V77.7406V77.754V77.7674V77.7809V77.7944V77.8079V77.8215V77.835V77.8486V77.8622V77.8759V77.8896V77.9033V77.917V77.9307V77.9445V77.9583V77.9722V77.986V77.9999V78.0138V78.0277V78.0417V78.0557V78.0697V78.0837V78.0978V78.1118V78.1259V78.1401V78.1542V78.1684V78.1826V78.1969V78.2111V78.2254V78.2397V78.2541V78.2684V78.2828V78.2973V78.3117V78.3262V78.3407V78.3552V78.3697V78.3843V78.3989V78.4135V78.4281V78.4428V78.4575V78.4722V78.487V78.5018V78.5166V78.5314V78.5462V78.5611V78.576V78.5909V78.6059V78.6209V78.6359V78.6509V78.6659V78.681V78.6961V78.7113V78.7264V78.7416V78.7568V78.772V78.7873V78.8026V78.8179V78.8332V78.8486V78.8639V78.8793V78.8948V78.9102V78.9257V78.9412V78.9568V78.9723V78.9879V79.0035V79.0192V79.0348V79.0505V79.0662V79.082V79.0977V79.1135V79.1293V79.1452V79.161V79.1769V79.1928V79.2088V79.2247V79.2407V79.2567V79.2728V79.2888V79.3049V79.3211V79.3372V79.3534V79.3696V79.3858V79.402V79.4183V79.4346V79.4509V79.4672V79.4836V79.5C346.5 84.5393 342.644 87.0465 340.179 88.2525C338.872 88.8921 337.461 89.4119 336.312 89.8354L336.28 89.8471C335.028 90.3087 334.075 90.6618 333.289 91.0427L327.5 93.8495V93.8579V93.8738V93.8897V93.9056V93.9216V93.9377V93.9537V93.9698V93.9859V94.0021V94.0182V94.0344V94.0507V94.067V94.0833V94.0996V94.116V94.1323V94.1488V94.1652V94.1817V94.1982V94.2148V94.2313V94.2479V94.2646V94.2812V94.2979V94.3147V94.3314V94.3482V94.365V94.3818V94.3987V94.4156V94.4325V94.4495V94.4665V94.4835V94.5005V94.5176V94.5347V94.5518V94.569V94.5861V94.6033V94.6206V94.6378V94.6551V94.6724V94.6898V94.7072V94.7246V94.742V94.7594V94.7769V94.7944V94.8119V94.8295V94.8471V94.8647V94.8823V94.9V94.9177V94.9354V94.9531V94.9709V94.9887V95.0065V95.0244V95.0422V95.0601V95.078V95.096V95.1139V95.1319V95.15V95.168V95.1861V95.2042V95.2223V95.2404V95.2586V95.2768V95.295V95.3132V95.3315V95.3497V95.368V95.3864V95.4047V95.4231V95.4415V95.4599V95.4784V95.4968V95.5153V95.5338V95.5524V95.5709V95.5895V95.6081V95.6267V95.6454V95.664V95.6827V95.7014V95.7202V95.7389V95.7577V95.7765V95.7953V95.8142V95.833V95.8519V95.8708V95.8897V95.9087V95.9276V95.9466V95.9656V95.9847V96.0037V96.0228V96.0418V96.061V96.0801V96.0992V96.1184V96.1376V96.1568V96.176V96.1952V96.2145V96.2338V96.2531V96.2724V96.2917V96.3111V96.3305V96.3498V96.3693V96.3887V96.4081V96.4276V96.4471V96.4666V96.4861V96.5056V96.5252V96.5447V96.5643V96.5839V96.6035V96.6232V96.6428V96.6625V96.6822V96.7019V96.7216V96.7414V96.7611V96.7809V96.8007V96.8205V96.8403V96.8601V96.88V96.8998V96.9197V96.9396V96.9595V96.9795V96.9994V97.0194V97.0393V97.0593V97.0793V97.0993V97.1194V97.1394V97.1595V97.1795V97.1996V97.2197V97.2398V97.26V97.2801V97.3003V97.3204V97.3406V97.3608V97.381V97.4013V97.4215V97.4417V97.462V97.4823V97.5026V97.5229V97.5432V97.5635V97.5838V97.6042V97.6246V97.6449V97.6653V97.6857V97.7061V97.7265V97.747V97.7674V97.7879V97.8083V97.8288V97.8493V97.8698V97.8903V97.9108V97.9314V97.9519V97.9725V97.993V98.0136V98.0342V98.0548V98.0754V98.096V98.1166V98.1372V98.1579V98.1785V98.1992V98.2199V98.2405V98.2612V98.2819V98.3026V98.3233V98.3441V98.3648V98.3855V98.4063V98.427V98.4478V98.4686V98.4893V98.5101V98.5309V98.5517V98.5725V98.5934V98.6142V98.635V98.6559V98.6767V98.6976V98.7184V98.7393V98.7602V98.781V98.8019V98.8228V98.8437V98.8646V98.8855V98.9065V98.9274V98.9483V98.9692V98.9902V99.0111V99.0321V99.053V99.074V99.095V99.116V99.1369V99.1579V99.1789V99.1999V99.2209V99.2419V99.2629V99.2839V99.3049V99.3259V99.347V99.368V99.389V99.41V99.4311V99.4521V99.4732V99.4942V99.5152V99.5363V99.5574V99.5784V99.5995V99.6205V99.6416V99.6627V99.6837V99.7048V99.7259V99.747V99.768V99.7891V99.8102V99.8313V99.8524V99.8735V99.8945V99.9156V99.9367V99.9578V99.9789V100C327.5 103.494 326.347 107.649 324.983 111.44C320.926 122.719 317.5 133.67 317.5 144.824V147.5H308.5V144.824C308.5 138.371 309.492 132.073 310.995 125.969L292.5 111.912L274.005 125.969C275.508 132.073 276.5 138.371 276.5 144.824V147.5H267.5V144.824C267.5 133.67 264.074 122.719 260.017 111.44C258.653 107.649 257.5 103.494 257.5 100V99.9789V99.9578V99.9367V99.9156V99.8945V99.8735V99.8524V99.8313V99.8102V99.7891V99.768V99.747V99.7259V99.7048V99.6837V99.6627V99.6416V99.6205V99.5995V99.5784V99.5574V99.5363V99.5152V99.4942V99.4732V99.4521V99.4311V99.41V99.389V99.368V99.347V99.3259V99.3049V99.2839V99.2629V99.2419V99.2209V99.1999V99.1789V99.1579V99.1369V99.116V99.095V99.074V99.053V99.0321V99.0111V98.9902V98.9692V98.9483V98.9274V98.9065V98.8855V98.8646V98.8437V98.8228V98.8019V98.781V98.7602V98.7393V98.7184V98.6976V98.6767V98.6559V98.635V98.6142V98.5934V98.5725V98.5517V98.5309V98.5101V98.4893V98.4686V98.4478V98.427V98.4063V98.3855V98.3648V98.3441V98.3233V98.3026V98.2819V98.2612V98.2405V98.2199V98.1992V98.1785V98.1579V98.1372V98.1166V98.096V98.0754V98.0548V98.0342V98.0136V97.993V97.9725V97.9519V97.9314V97.9108V97.8903V97.8698V97.8493V97.8288V97.8083V97.7879V97.7674V97.747V97.7265V97.7061V97.6857V97.6653V97.6449V97.6246V97.6042V97.5838V97.5635V97.5432V97.5229V97.5026V97.4823V97.462V97.4417V97.4215V97.4013V97.381V97.3608V97.3406V97.3204V97.3003V97.2801V97.26V97.2398V97.2197V97.1996V97.1795V97.1595V97.1394V97.1194V97.0993V97.0793V97.0593V97.0393V97.0194V96.9994V96.9795V96.9595V96.9396V96.9197V96.8998V96.88V96.8601V96.8403V96.8205V96.8007V96.7809V96.7611V96.7414V96.7216V96.7019V96.6822V96.6625V96.6428V96.6232V96.6035V96.5839V96.5643V96.5447V96.5252V96.5056V96.4861V96.4666V96.4471V96.4276V96.4081V96.3887V96.3693V96.3498V96.3305V96.3111V96.2917V96.2724V96.2531V96.2338V96.2145V96.1952V96.176V96.1568V96.1376V96.1184V96.0992V96.0801V96.061V96.0418V96.0228V96.0037V95.9847V95.9656V95.9466V95.9276V95.9087V95.8897V95.8708V95.8519V95.833V95.8142V95.7953V95.7765V95.7577V95.7389V95.7202V95.7014V95.6827V95.664V95.6454V95.6267V95.6081V95.5895V95.5709V95.5524V95.5338V95.5153V95.4968V95.4784V95.4599V95.4415V95.4231V95.4047V95.3864V95.368V95.3497V95.3315V95.3132V95.295V95.2768V95.2586V95.2404V95.2223V95.2042V95.1861V95.168V95.15V95.1319V95.1139V95.096V95.078V95.0601V95.0422V95.0244V95.0065V94.9887V94.9709V94.9531V94.9354V94.9177V94.9V94.8823V94.8647V94.8471V94.8295V94.8119V94.7944V94.7769V94.7594V94.742V94.7246V94.7072V94.6898V94.6724V94.6551V94.6378V94.6206V94.6033V94.5861V94.569V94.5518V94.5347V94.5176V94.5005V94.4835V94.4665V94.4495V94.4325V94.4156V94.3987V94.3818V94.365V94.3482V94.3314V94.3147V94.2979V94.2812V94.2646V94.2479V94.2313V94.2148V94.1982V94.1817V94.1652V94.1488V94.1323V94.116V94.0996V94.0833V94.067V94.0507V94.0344V94.0182V94.0021V93.9859V93.9698V93.9537V93.9377V93.9216V93.9056V93.8897V93.8738V93.8579V93.8495L251.711 91.0427C250.925 90.6618 249.972 90.3087 248.72 89.8471L248.688 89.8354C247.539 89.4119 246.128 88.8921 244.821 88.2525C242.356 87.0465 238.5 84.5393 238.5 79.5V79.4836V79.4672V79.4509V79.4346V79.4183V79.402V79.3858V79.3696V79.3534V79.3372V79.3211V79.3049V79.2888V79.2728V79.2567V79.2407V79.2247V79.2088V79.1928V79.1769V79.161V79.1452V79.1293V79.1135V79.0977V79.082V79.0662V79.0505V79.0348V79.0192V79.0035V78.9879V78.9723V78.9568V78.9412V78.9257V78.9102V78.8948V78.8793V78.8639V78.8486V78.8332V78.8179V78.8026V78.7873V78.772V78.7568V78.7416V78.7264V78.7113V78.6961V78.681V78.6659V78.6509V78.6359V78.6209V78.6059V78.5909V78.576V78.5611V78.5462V78.5314V78.5166V78.5018V78.487V78.4722V78.4575V78.4428V78.4281V78.4135V78.3989V78.3843V78.3697V78.3552V78.3407V78.3262V78.3117V78.2973V78.2828V78.2684V78.2541V78.2397V78.2254V78.2111V78.1969V78.1826V78.1684V78.1542V78.1401V78.1259V78.1118V78.0978V78.0837V78.0697V78.0557V78.0417V78.0277V78.0138V77.9999V77.986V77.9722V77.9583V77.9445V77.9307V77.917V77.9033V77.8896V77.8759V77.8622V77.8486V77.835V77.8215V77.8079V77.7944V77.7809V77.7674V77.754V77.7406V77.7272V77.7138V77.7005V77.6872V77.6739V77.6606V77.6474V77.6342V77.621V77.6078V77.5947V77.5816V77.5685V77.5554V77.5424V77.5294V77.5164V77.5035V77.4905V77.4776V77.4648V77.4519V77.4391V77.4263V77.4135V77.4008V77.388V77.3753V77.3627V77.35V77.3374V77.3248V77.3123V77.2997V77.2872V77.2747V77.2622V77.2498V77.2374V77.225V77.2127V77.2003V77.188V77.1757V77.1635V77.1512V77.139V77.1269V77.1147V77.1026V77.0905V77.0784V77.0664V77.0543V77.0423V77.0304V77.0184V77.0065V76.9946V76.9827V76.9709V76.9591V76.9473V76.9355V76.9238V76.9121V76.9004V76.8887V76.8771V76.8655V76.8539V76.8424V76.8308V76.8193V76.8079V76.7964V76.785V76.7736V76.7622V76.7509V76.7395V76.7283V76.717V76.7057V76.6945V76.6833V76.6722V76.661V76.6499V76.6388V76.6278V76.6167V76.6057V76.5948V76.5838V76.5729V76.562V76.5511V76.5402V76.5294V76.5186V76.5078V76.4971V76.4864V76.4757V76.465V76.4544V76.4438V76.4332V76.4226V76.4121V76.4016V76.3911V76.3806V76.3702V76.3598V76.3494V76.339V76.3287V76.3184V76.3081V76.2979V76.2877V76.2775V76.2673V76.2572V76.2471V76.237V76.2269V76.2169V76.2068V76.1969V76.1869V76.177V76.1671V76.1572V76.1473V76.1375V76.1277V76.1179V76.1082V76.0985V76.0888V76.0791V76.0694V76.0598V76.0502V76.0407V76.0311V76.0216V76.0121V76.0027V75.9932V75.9838V75.9745V75.9651V75.9558V75.9465V75.9372V75.928V75.9187V75.9095V75.9004V75.8912V75.8821V75.873V75.864V75.8549V75.8459V75.8369V75.828V75.8191V75.8101V75.8013V75.7924V75.7836V75.7748V75.766V75.7573V75.7486V75.7399V75.7312V75.7226V75.714V75.7054V75.6968V75.6883V75.6798V75.6713V75.6628V75.6544V75.646V75.6376V75.6293V75.621V75.6127V75.6044V75.5962V75.588V75.5798V75.5716V75.5635V75.5554V75.5473V75.5392V75.5312V75.5232V75.5152V75.5073V75.4994V75.4915V75.4836V75.4758V75.4679V75.4602V75.4524V75.4447V75.437V75.4293V75.4216V75.414V75.4064V75.3988V75.3913V75.3837V75.3763V75.3688V75.3613V75.3539V75.3465V75.3392V75.3318V75.3245V75.3173V75.31V75.3028V75.2956V75.2884V75.2813V75.2741V75.267V75.26V75.2529V75.2459V75.2389V75.232V75.2251V75.2181V75.2113V75.2044V75.1976V75.1908V75.184V75.1773V75.1706V75.1639V75.1572V75.1506V75.144V75.1374V75.1308V75.1243V75.1178V75.1113V75.1049V75.0984V75.092V75.0857V75.0793V75.073V75.0667V75.0605V75.0542V75.048V75.0418V75.0357V75.0296V75.0235V75.0174V75.0114V75.0053V74.9993V74.9934V74.9874V74.9815V74.9756V74.9698V74.964V74.9582V74.9524V74.9466V74.9409V74.9352V74.9296V74.9239V74.9183V74.9127V74.9072V74.9016V74.8961V74.8906V74.8852V74.8798V74.8744V74.869V74.8637V74.8583V74.853V74.8478V74.8426V74.8373V74.8322V74.827V74.8219V74.8168V74.8117V74.8067V74.8017V74.7967V74.7917V74.7868V74.7819V74.777V74.7721V74.7673V74.7625V74.7577V74.753V74.7482V74.7436V74.7389V74.7343V74.7296V74.7251V74.7205V74.716V74.7115V74.707V74.7026V74.6981V74.6937V74.6894V74.685V74.6807V74.6764V74.6722V74.668V74.6638V74.6596V74.6554V74.6513V74.6472V74.6432V74.6391V74.6351V74.6311V74.6272V74.6232V74.6193V74.6155V74.6116V74.6078V74.604V74.6002V74.5965V74.5928V74.5891V74.5854V74.5818V74.5782V74.5746V74.5711V74.5676V74.5641V74.5606V74.5572V74.5538V74.5504V74.547V74.5437V74.5404V74.5371V74.5339V74.5307V74.5275V74.5243V74.5212V74.5181V74.515V74.5119V74.5089V74.5059V74.5029V74.5C238.5 74.3243 238.51 74.1487 238.531 73.9742C239.167 68.5648 244.644 61.5 257 61.5H257.061H257.122H257.183H257.244H257.305H257.366H257.427H257.489H257.55H257.611H257.672H257.734H257.795H257.856H257.918H257.979H258.041H258.102H258.164H258.225H258.287H258.348H258.41H258.472H258.533H258.595H258.657H258.719H258.78H258.842H258.904H258.966H259.028H259.09H259.151H259.213H259.275H259.337H259.399H259.461H259.523H259.585H259.648H259.71H259.772H259.834H259.896H259.958H260.02H260.083H260.145H260.207H260.269H260.331H260.394H260.456H260.518H260.581H260.643H260.705H260.768H260.83H260.892H260.955H261.017H261.079H261.142H261.204H261.267H261.329H261.392H261.454H261.516H261.579H261.641H261.704H261.766H261.829H261.891H261.954H262.016H262.079H262.141H262.204H262.266H262.329H262.391H262.454H262.516H262.579H262.641H262.704H262.766H262.829H262.891H262.954H263.016H263.079H263.141H263.204H263.266H263.329H263.391H263.454H263.516H263.578H263.641H263.703H263.766H263.828H263.891H263.953H264.015H264.078H264.14H264.203H264.265H264.327H264.39H264.452H264.514H264.576H264.639H264.701H264.763H264.826H264.888H264.95H265.012H265.074H265.137H265.199H265.261H265.323H265.385H265.447H265.509H265.571H265.633H265.695H265.757H265.819H265.881H265.943H266.005H266.067H266.129H266.191H266.252H266.314H266.376H266.438H266.499H266.561H266.623H266.684H266.746H266.808H266.869H266.931H266.992H267.054H267.115H267.177H267.238H267.299H267.361H267.422H267.483H267.544H267.606H267.667H267.728H267.789H267.85H267.911H267.972H268.033H268.094H268.155H268.216H268.277H268.337H268.398H268.459H268.52H268.58H268.641H268.701H268.762H268.822H268.883H268.943H269.004H269.064H269.124H269.184H269.245H269.305H269.365H269.425H269.485H269.545H269.605H269.665H269.725H269.784H269.844H269.904H269.964H270.023H270.083H270.142H270.202H270.261H270.32H270.38H270.439H270.498H270.557H270.617H270.676H270.735H270.794H270.852H270.911H270.97H271.029H271.088H271.146H271.205H271.263H271.322H271.38H271.438H271.497H271.555H271.613H271.671H271.729H271.787H271.845H271.903H271.961H272.019H272.076H272.134H272.192H272.249H272.307H272.364H272.421H272.479H272.536H272.593H272.65H272.707H272.764H272.821H272.878H272.934H272.991H273.048H273.104H273.161H273.217H273.273H273.33H273.386H273.442H273.498H273.554H273.61H273.666H273.721H273.777H273.833H273.888H273.944H273.999H274.054H274.109H274.165H274.22H274.275H274.33H274.384H274.439H274.494H274.549H274.603H274.658H274.712H274.766H274.82H274.875H274.929H274.983H275.036H275.09H275.144H275.198H275.251H275.305H275.358H275.411H275.465H275.518H275.571H275.624H275.677H275.729H275.782H275.835H275.887H275.94H275.992H276.044H276.096H276.148H276.2H276.252H276.304H276.356H276.407H276.459H276.51H276.562H276.613H276.664H276.715H276.766H276.817H276.868H276.918H276.969H277.019H277.07H277.12H277.17H277.22H277.27H277.32H277.37H277.42H277.469H277.519H277.568H277.617H277.667H277.716H277.765H277.814H277.862H277.911H277.959H278.008H278.056H278.105H278.153H278.201H278.249H278.296H278.344H278.392H278.439H278.487H278.534H278.581H278.628H278.675H278.722H278.769H278.815H278.862H278.908H278.954H279H279.047H279.092H279.138H279.184H279.23H279.275H279.32H279.366H279.411H279.456H279.501H279.545H279.59H279.635H279.679H279.723H279.767H279.811H279.855H279.899H279.943H279.986H280.03H280.073H280.116H280.159H280.202H280.245H280.288H280.331H280.373H280.415H280.458H280.5H280.542H280.583H280.625H280.667H280.708H280.749H280.791H280.832H280.872H280.913H280.954H280.994H281.035H281.075H281.115H281.155H281.195H281.235H281.274H281.314H281.353H281.392H281.431H281.47H281.509H281.548H281.586H281.625H281.663H281.701H281.739H281.777H281.814H281.852H281.889H281.927H281.964H282.001H282.037H282.074H282.111H282.147H282.183H282.219H282.255H282.291H282.327H282.362H282.398H282.433H282.468H282.503H282.538H282.573H282.607H282.641H282.676H282.71H282.744H282.777H282.811H282.844H282.878H282.911H282.944H282.977H283.009H283.042H283.074H283.107H283.139H283.171H283.202H283.234H283.265H283.297H283.328H283.359H283.39H283.42H283.451H283.481H283.511H283.541H283.571H283.601H283.631H283.66H283.689H283.718H283.747H283.776H283.805H283.833H283.861H283.889H283.917H283.945H283.973H284H287ZM266.5 98.2132L284.297 106.842L271.339 116.69C270.43 113.874 269.462 111.107 268.486 108.393C267.19 104.792 266.5 101.86 266.5 100V99.9789V99.9578V99.9367V99.9156V99.8945V99.8735V99.8524V99.8313V99.8102V99.7891V99.768V99.747V99.7259V99.7048V99.6837V99.6627V99.6416V99.6205V99.5995V99.5784V99.5574V99.5363V99.5152V99.4942V99.4732V99.4521V99.4311V99.41V99.389V99.368V99.347V99.3259V99.3049V99.2839V99.2629V99.2419V99.2209V99.1999V99.1789V99.1579V99.1369V99.116V99.095V99.074V99.053V99.0321V99.0111V98.9902V98.9692V98.9483V98.9274V98.9065V98.8855V98.8646V98.8437V98.8228V98.8019V98.781V98.7602V98.7393V98.7184V98.6976V98.6767V98.6559V98.635V98.6142V98.5934V98.5725V98.5517V98.5309V98.5101V98.4893V98.4686V98.4478V98.427V98.4063V98.3855V98.3648V98.3441V98.3233V98.3026V98.2819V98.2612V98.2405V98.2199V98.2132ZM318.5 98.2132L300.703 106.842L313.661 116.69C314.57 113.874 315.538 111.107 316.514 108.393C317.81 104.792 318.5 101.86 318.5 100V99.9789V99.9578V99.9367V99.9156V99.8945V99.8735V99.8524V99.8313V99.8102V99.7891V99.768V99.747V99.7259V99.7048V99.6837V99.6627V99.6416V99.6205V99.5995V99.5784V99.5574V99.5363V99.5152V99.4942V99.4732V99.4521V99.4311V99.41V99.389V99.368V99.347V99.3259V99.3049V99.2839V99.2629V99.2419V99.2209V99.1999V99.1789V99.1579V99.1369V99.116V99.095V99.074V99.053V99.0321V99.0111V98.9902V98.9692V98.9483V98.9274V98.9065V98.8855V98.8646V98.8437V98.8228V98.8019V98.781V98.7602V98.7393V98.7184V98.6976V98.6767V98.6559V98.635V98.6142V98.5934V98.5725V98.5517V98.5309V98.5101V98.4893V98.4686V98.4478V98.427V98.4063V98.3855V98.3648V98.3441V98.3233V98.3026V98.2819V98.2612V98.2405V98.2199V98.2132Z" fill="white"/>
<path fill-rule="evenodd" clip-rule="evenodd" d="M177.982 495.537L209.623 452.537C210.566 451.256 212.061 450.5 213.65 450.5H226.935C230.552 450.5 232.972 454.221 231.506 457.527L212.44 500.527C211.639 502.334 209.847 503.5 207.869 503.5H182.009C177.91 503.5 175.552 498.838 177.982 495.537ZM410.262 496.037L378.621 453.037C377.678 451.756 376.183 451 374.593 451H361.308C357.692 451 355.272 454.721 356.738 458.027L375.804 501.027C376.605 502.834 378.397 504 380.374 504H406.235C410.334 504 412.692 499.338 410.262 496.037Z" fill="white"/>
<g filter="url(#filter0_f_1_3)">
<path fill-rule="evenodd" clip-rule="evenodd" d="M479 279.719L533.422 309.877L512.321 313.952L512.726 315.911L533.601 311.879L507.197 360.242L508.979 361.15L535.732 312.148L547.389 349.388L549.309 348.827L537.587 311.38L556.758 318.625L557.509 316.771L539.776 310.07L568 306.863L567.758 304.878L537.255 308.343L552.074 279.719L550.273 278.85L535.392 307.593L531.463 287.862L529.497 288.228L533.344 307.548L480.022 278L479 279.719Z" fill="white"/>
</g>
<g filter="url(#filter1_f_1_3)">
<path fill-rule="evenodd" clip-rule="evenodd" d="M431.488 106.218L459.446 87.3599L458.056 85.9216L429.672 105.067L433.502 84.6747L431.573 84.1463L427.829 104.081L380.977 50.4747L379.252 51.4856L426.684 105.756L401.837 99.1105L401.486 101.079L426.462 107.759L377.538 139.071L378.9 140.535L428.27 108.939L425.857 148.655L427.823 149.018L430.265 108.835L448.7 125.174L450.233 123.89L433.407 108.976L465.84 119.956L466.384 118.031L431.488 106.218Z" fill="white"/>
</g>
<g filter="url(#filter2_f_1_3)">
<path fill-rule="evenodd" clip-rule="evenodd" d="M170.692 165.054L179 122L177.036 121.621L168.869 163.942L143.533 133.715L142 135L167.722 165.687L107.562 148.081L107 150L167.562 167.724L144.866 183.353L146 185L169.288 168.963L167 215L168.998 215.099L171.296 168.862L189.7 185.174L191.233 183.89L174.265 168.851L203 178L203.607 176.094L172.52 166.196L200.446 147.36L199.056 145.922L170.692 165.054Z" fill="white"/>
</g>
<g filter="url(#filter3_f_1_3)">
<path fill-rule="evenodd" clip-rule="evenodd" d="M129.273 325.334L158.811 303.369L157.469 301.886L128.522 323.412L131.031 295.537L129.037 295.696L126.435 324.6L100.977 289.002L99.2856 290.069L124.753 325.679L102.442 325.595L102.056 327.557L125.41 327.645L96.9956 354.477L98.5651 355.717L126.728 329.123L128.099 345.994L130.093 345.837L128.823 330.214L140.27 347.242L141.982 346.207L129.294 327.335L156.743 327.674L156.762 325.674L129.273 325.334Z" fill="white"/>
</g>
<g filter="url(#filter4_f_1_3)">
<path fill-rule="evenodd" clip-rule="evenodd" d="M165.447 464.131L197 457L196.559 455.049L165.478 462.074L185 443L183.602 441.569L164.208 460.518L163.336 432.638L161.376 433.036L162.286 462.124L144.44 443.612L143 445L160.662 463.32L126.726 468.019L127 470L161.481 465.226L144 484L145.464 485.363L163.103 466.419L166.518 483.079L168.478 482.682L165.173 466.553L185 484L186.321 482.499L165.447 464.131Z" fill="white"/>
</g>
<g filter="url(#filter5_f_1_3)">
<path fill-rule="evenodd" clip-rule="evenodd" d="M460.996 244.607L480.888 240.534L480.409 238.592L460.94 242.579L472.69 230.814L471.309 229.367L459.866 240.825L458.847 223.258L456.879 223.614L457.961 242.275L446.372 229.98L444.949 231.385L456.43 243.566L434.514 246.067L434.834 248.042L457.55 245.449L446.339 257.855L447.784 259.238L458.814 247.032L461.215 257.651L463.183 257.296L460.906 247.225L473.456 258.621L474.753 257.098L460.996 244.607Z" fill="white"/>
</g>
<g filter="url(#filter6_f_1_3)">
<path fill-rule="evenodd" clip-rule="evenodd" d="M476.996 317.607L496.888 313.534L496.409 311.592L476.94 315.579L488.69 303.814L487.309 302.367L475.866 313.825L474.847 296.258L472.879 296.614L473.961 315.275L462.372 302.98L460.949 304.385L472.43 316.566L450.514 319.067L450.834 321.042L473.55 318.449L462.339 330.855L463.784 332.238L474.814 320.032L477.215 330.651L479.183 330.296L476.906 320.225L489.456 331.621L490.753 330.098L476.996 317.607Z" fill="white"/>
</g>
<g filter="url(#filter7_f_1_3)">
<path fill-rule="evenodd" clip-rule="evenodd" d="M98.9962 190.607L118.888 186.534L118.409 184.592L98.94 188.579L110.69 176.814L109.309 175.367L97.8659 186.825L96.8468 169.258L94.8787 169.614L95.9613 188.275L84.3721 175.98L82.9488 177.385L94.4303 189.566L72.5144 192.067L72.8342 194.042L95.5502 191.449L84.3395 203.855L85.7838 205.238L96.8137 193.032L99.2151 203.651L101.183 203.296L98.906 193.225L111.456 204.621L112.753 203.098L98.9962 190.607Z" fill="white"/>
</g>
<g filter="url(#filter8_f_1_3)">
<path fill-rule="evenodd" clip-rule="evenodd" d="M63.6595 357.897L77 357L76.8659 355.004L62.9688 355.938L71 349L69.6925 347.487L62.1041 354.042L61.9999 341.983L60 342L60.1178 355.635L51.3581 347.532L50 349L58.1923 356.578L44.7874 358.011L45 360L59.6454 358.434L52 368L53.5623 369.249L60.839 360.144L63.2151 370.651L65.1834 370.296L62.7974 359.746L74 368L75.1864 366.39L63.6595 357.897Z" fill="white"/>
</g>
<g filter="url(#filter9_f_1_3)">
<path fill-rule="evenodd" clip-rule="evenodd" d="M327.47 459.792L340.811 458.895L340.676 456.9L326.779 457.834L334.811 450.895L333.503 449.382L325.915 455.938L325.811 443.878L323.811 443.895L323.928 457.53L315.169 449.427L313.811 450.895L322.003 458.473L308.598 459.907L308.811 461.895L323.456 460.329L315.811 469.895L317.373 471.144L324.65 462.039L327.026 472.546L328.994 472.192L326.608 461.641L337.811 469.895L338.997 468.285L327.47 459.792Z" fill="white"/>
</g>
<g filter="url(#filter10_f_1_3)">
<path fill-rule="evenodd" clip-rule="evenodd" d="M432.222 410.529L441.874 419.782L443.258 418.338L433.203 408.699L443.742 409.958L443.979 407.972L434.022 406.783L442.862 398.58L441.502 397.114L431.507 406.388L431.592 394.456L429.592 394.441L429.512 405.601L419.421 396.662L418.095 398.159L429.12 407.925L416.9 408.722L417.03 410.718L428.661 409.959L422.499 418.795L424.087 420.01L430.275 411.138L431.724 424.977L433.714 424.769L432.222 410.529Z" fill="white"/>
</g>
<g filter="url(#filter11_f_1_3)">
<path fill-rule="evenodd" clip-rule="evenodd" d="M473.831 445.97L490.121 461.141L491.484 459.677L476.348 445.582L499.334 443.129L499.122 441.141L474.888 443.726L492.556 425.534L491.122 424.141L473.904 441.869L475.118 420.253L473.122 420.141L471.796 443.727L456.121 430.141L454.812 431.652L469.582 444.454L459.16 444.947L459.166 446.947L470.209 446.425L448.122 470.141L449.585 471.504L471.616 447.849L470.201 460.899L472.189 461.115L473.831 445.97Z" fill="white"/>
</g>
<g clip-path="url(#clip0_1_3)" filter="url(#filter12_f_1_3)">
<path d="M556.032 215.532H550.335L552.889 212.978C553.567 212.3 553.567 211.2 552.889 210.522C552.211 209.844 551.111 209.844 550.433 210.522L545.423 215.532H537.002L540.749 211.505C541.402 210.803 541.362 209.704 540.66 209.051C540.372 208.783 540.017 208.633 539.654 208.596C539.433 208.586 534.677 208.596 534.677 208.596L540.244 203.029H547.233C548.193 203.029 548.97 202.251 548.97 201.292C548.97 200.333 548.193 199.555 547.233 199.555H543.717L547.813 195.459C548.491 194.781 548.491 193.682 547.813 193.003C547.135 192.325 545.997 192.325 545.318 193.003L541.136 197.147V193.535C541.136 192.576 540.359 191.799 539.399 191.799C538.44 191.799 537.663 192.576 537.663 193.535V200.621L531.912 206.41L531.816 201.167C531.816 201.159 531.824 201.151 531.824 201.142C531.816 200.72 531.661 200.299 531.344 199.971C530.679 199.281 529.544 199.26 528.853 199.926L525.159 203.452V195.297L530.131 190.364C530.809 189.685 530.828 188.586 530.15 187.908C529.472 187.23 528.343 187.23 527.665 187.908L525.159 190.384V184.737C525.159 183.777 524.382 183 523.423 183C522.464 183 521.686 183.777 521.686 184.737V190.385L519.248 187.908C518.57 187.23 517.49 187.23 516.811 187.908C516.133 188.586 516.104 189.686 516.782 190.364L521.686 195.297V203.498L517.941 199.915C517.244 199.256 516.165 199.286 515.505 199.982C515.256 200.245 515.115 200.566 515.062 200.898C515.029 201.033 515.015 201.173 515.015 201.317L514.995 206.233L509.183 200.457V193.535C509.183 192.576 508.406 191.799 507.447 191.799C506.487 191.799 505.71 192.576 505.71 193.535V196.984L501.768 193.003C501.089 192.325 500.009 192.325 499.331 193.003C498.653 193.682 498.663 194.781 499.341 195.459L503.446 199.555H499.767C498.808 199.555 498.03 200.333 498.03 201.292C498.03 202.251 498.808 203.029 499.767 203.029H506.92L512.649 208.758L507.31 208.95C506.379 208.984 505.568 209.746 505.559 210.668C505.558 210.694 505.478 210.72 505.478 210.746C505.478 210.747 505.478 210.747 505.478 210.748C505.478 210.75 505.558 210.752 505.558 210.754C505.569 211.188 505.779 211.619 506.113 211.948L509.781 215.532H501.741L496.731 210.522C496.052 209.844 494.953 209.844 494.275 210.522C493.596 211.2 493.596 212.3 494.275 212.978L496.828 215.532H490.968C490.009 215.532 489.232 216.309 489.232 217.268C489.232 218.228 490.009 219.005 490.968 219.005H496.761L494.275 221.492C493.596 222.17 493.596 223.269 494.275 223.948C494.614 224.287 495.058 224.456 495.503 224.456C495.947 224.456 496.392 224.287 496.731 223.948L501.673 219.005H509.784L506.252 222.801C505.599 223.503 505.638 224.602 506.341 225.255C506.675 225.567 507.099 225.72 507.523 225.72C507.531 225.72 507.539 225.719 507.547 225.719C507.552 225.719 507.557 225.72 507.562 225.72C507.566 225.72 507.57 225.72 507.574 225.72L512.67 225.691L506.852 231.508H499.767C498.808 231.508 498.03 232.286 498.03 233.245C498.03 234.204 498.808 234.982 499.767 234.982H503.379L499.35 239.01C498.672 239.689 498.672 240.788 499.35 241.466C499.69 241.805 500.134 241.975 500.579 241.975C501.023 241.975 501.429 241.805 501.768 241.466L505.71 237.486V241.002C505.71 241.961 506.487 242.738 507.447 242.738C508.406 242.738 509.183 241.961 509.183 241.002V234.013L515.075 228.16L515.301 233.807C515.335 234.744 516.115 235.499 517.045 235.48C517.361 235.474 517.704 235.372 518.043 235.123C518.29 234.942 521.687 231.461 521.687 231.461V239.655L516.831 244.549C516.152 245.227 516.172 246.326 516.85 247.005C517.189 247.344 517.643 247.513 518.087 247.513C518.532 247.513 518.943 247.344 519.282 247.005L521.687 244.566V250.263C521.687 251.223 522.464 252 523.423 252C524.382 252 525.16 251.223 525.16 250.263V244.403L527.8 247.005C528.139 247.344 528.603 247.513 529.048 247.513C529.492 247.513 529.946 247.344 530.285 247.005C530.963 246.326 530.93 245.227 530.251 244.549L525.16 239.491V231.225C525.16 231.225 528.339 234.211 528.84 234.692C529.342 235.174 529.753 235.445 530.351 235.445C530.355 235.445 530.358 235.445 530.362 235.445C531.321 235.445 532.094 234.61 532.088 233.651L532.017 228.165L537.663 233.849V241.002C537.663 241.961 538.44 242.738 539.4 242.738C540.359 242.738 541.136 241.961 541.136 241.002V237.322L545.319 241.466C545.658 241.805 546.122 241.975 546.566 241.975C547.01 241.975 547.465 241.805 547.804 241.466C548.482 240.788 548.487 239.688 547.809 239.01L543.784 234.982H547.233C548.193 234.982 548.97 234.204 548.97 233.245C548.97 232.286 548.193 231.508 547.233 231.508H540.311L534.351 225.548L539.69 225.356C539.709 225.355 539.728 225.352 539.746 225.351C539.753 225.35 539.76 225.35 539.767 225.349C540.688 225.275 541.397 224.49 541.363 223.558C541.343 222.996 541.057 222.509 540.633 222.206L537.425 219.005H545.49L550.433 223.948C550.772 224.287 551.216 224.456 551.661 224.456C552.105 224.456 552.55 224.287 552.889 223.948C553.567 223.27 553.567 222.17 552.889 221.492L550.402 219.005H556.032C556.991 219.005 557.768 218.228 557.768 217.269C557.768 216.309 556.991 215.532 556.032 215.532ZM535.493 212.055L532.258 215.532H527.741L531.215 212.058L535.493 212.055ZM528.411 205.178L528.493 209.81L525.159 213.124V208.275L528.411 205.178ZM518.467 205.197L521.686 208.282V212.96L518.462 209.717L518.467 205.197ZM511.428 212.277L516.004 212.112L519.423 215.532H514.723L511.428 212.277ZM511.517 222.241L514.528 219.005H519.356L516.151 222.21L511.517 222.241ZM518.606 229.679L518.408 224.807L521.686 221.509V226.512L518.606 229.679ZM528.552 229.601L525.159 226.481V221.345L528.503 224.67L528.552 229.601ZM535.538 222.03L530.997 222.193L527.808 219.005H532.507L535.538 222.03Z" fill="white" fill-opacity="0.76"/>
</g>
<g clip-path="url(#clip1_1_3)" filter="url(#filter13_f_1_3)">
<path d="M95.0319 267.532H89.3345L91.8887 264.978C92.5671 264.3 92.5671 263.2 91.8889 262.522C91.2107 261.844 90.1111 261.844 89.4332 262.522L84.4228 267.532H76.0018L79.7486 263.505C80.4018 262.803 80.3622 261.704 79.6599 261.051C79.3721 260.783 79.0174 260.633 78.6539 260.596C78.4335 260.586 73.6769 260.596 73.6769 260.596L79.2441 255.029H86.2332C87.1925 255.029 87.9698 254.251 87.9698 253.292C87.9698 252.333 87.1925 251.555 86.2332 251.555H82.717L86.813 247.459C87.4912 246.781 87.4912 245.682 86.813 245.003C86.1346 244.325 84.9968 244.325 84.3184 245.003L80.136 249.147V245.535C80.136 244.576 79.3587 243.799 78.3994 243.799C77.4401 243.799 76.6629 244.576 76.6629 245.535V252.621L70.912 258.41L70.8159 253.167C70.8157 253.159 70.824 253.151 70.8238 253.142C70.8157 252.72 70.6608 252.299 70.3445 251.971C69.6793 251.281 68.5435 251.26 67.8528 251.926L64.1595 255.452V247.297L69.1307 242.364C69.8089 241.685 69.8281 240.586 69.15 239.908C68.4715 239.23 67.3432 239.23 66.665 239.908L64.1595 242.384V236.737C64.1595 235.777 63.3822 235 62.4229 235C61.4636 235 60.6863 235.777 60.6863 236.737V242.385L58.2482 239.908C57.5698 239.23 56.4898 239.23 55.8114 239.908C55.1332 240.586 55.1043 241.686 55.7825 242.364L60.6863 247.297V255.498L56.9409 251.915C56.2442 251.256 55.165 251.286 54.5051 251.982C54.2561 252.245 54.1154 252.566 54.0619 252.898C54.029 253.033 54.0149 253.173 54.0153 253.317L53.995 258.233L48.1832 252.457V245.535C48.1832 244.576 47.4059 243.799 46.4466 243.799C45.4874 243.799 44.7101 244.576 44.7101 245.535V248.984L40.7678 245.003C40.0894 244.325 39.0095 244.325 38.331 245.003C37.6528 245.682 37.6626 246.781 38.3408 247.459L42.4465 251.555H38.7668C37.8075 251.555 37.0302 252.333 37.0302 253.292C37.0302 254.251 37.8075 255.029 38.7668 255.029H45.9196L51.649 260.758L46.3103 260.95C45.3792 260.984 44.5681 261.746 44.5591 262.668C44.5582 262.694 44.4783 262.72 44.4783 262.746C44.4783 262.747 44.4783 262.747 44.4783 262.748C44.4783 262.75 44.5582 262.752 44.5582 262.754C44.5686 263.188 44.7793 263.619 45.1127 263.948L48.7806 267.532H40.7407L35.7306 262.522C35.0521 261.844 33.9528 261.844 33.2746 262.522C32.5964 263.2 32.5964 264.3 33.2746 264.978L35.8285 267.532H29.9681C29.0089 267.532 28.2316 268.309 28.2316 269.268C28.2316 270.228 29.0089 271.005 29.9681 271.005H35.7614L33.2746 273.492C32.5964 274.17 32.5964 275.269 33.2746 275.948C33.6138 276.287 34.0584 276.456 34.5027 276.456C34.947 276.456 35.3916 276.287 35.7308 275.948L40.6733 271.005H48.7836L45.2519 274.801C44.5987 275.503 44.6383 276.602 45.3406 277.255C45.6749 277.567 46.0993 277.72 46.5228 277.72C46.5307 277.72 46.5386 277.719 46.5467 277.719C46.5518 277.719 46.5569 277.72 46.5617 277.72C46.5659 277.72 46.5703 277.72 46.5745 277.72L51.6696 277.691L45.8523 283.508H38.7668C37.8075 283.508 37.0302 284.286 37.0302 285.245C37.0302 286.204 37.8075 286.982 38.7668 286.982H42.3791L38.3505 291.01C37.6723 291.689 37.6723 292.788 38.3505 293.466C38.6897 293.805 39.1343 293.975 39.5786 293.975C40.0229 293.975 40.4288 293.805 40.768 293.466L44.7101 289.486V293.002C44.7101 293.961 45.4874 294.738 46.4466 294.738C47.4059 294.738 48.1832 293.961 48.1832 293.002V286.013L54.0748 280.16L54.3011 285.807C54.3353 286.744 55.1154 287.499 56.045 287.48C56.3609 287.474 56.7036 287.372 57.0435 287.123C57.2896 286.942 60.6866 283.461 60.6866 283.461V291.655L55.8309 296.549C55.1524 297.227 55.1719 298.326 55.8499 299.005C56.1891 299.344 56.6429 299.513 57.0875 299.513C57.5318 299.513 57.9426 299.344 58.2815 299.005L60.6866 296.566V302.263C60.6866 303.223 61.4639 304 62.4231 304C63.3824 304 64.1597 303.223 64.1597 302.263V296.403L66.8003 299.005C67.1395 299.344 67.6032 299.513 68.0476 299.513C68.4919 299.513 68.9462 299.344 69.2852 299.005C69.9634 298.326 69.9296 297.227 69.2514 296.549L64.1597 291.491V283.225C64.1597 283.225 67.3386 286.211 67.8403 286.692C68.3421 287.174 68.7531 287.445 69.3512 287.445C69.3546 287.445 69.3581 287.445 69.3618 287.445C70.3209 287.445 71.0938 286.61 71.088 285.651L71.0171 280.165L76.6631 285.849V293.002C76.6631 293.961 77.4404 294.738 78.3997 294.738C79.3589 294.738 80.1362 293.961 80.1362 293.002V289.322L84.3188 293.466C84.6581 293.805 85.1216 293.975 85.5662 293.975C86.0105 293.975 86.4646 293.805 86.8038 293.466C87.482 292.788 87.4868 291.688 86.8086 291.01L82.7844 286.982H86.2332C87.1925 286.982 87.9698 286.204 87.9698 285.245C87.9698 284.286 87.1925 283.508 86.2332 283.508H79.3115L73.3511 277.548L78.6902 277.356C78.7092 277.355 78.7278 277.352 78.7465 277.351C78.7535 277.35 78.7604 277.35 78.7673 277.349C79.6882 277.275 80.3967 276.49 80.3631 275.558C80.343 274.996 80.0575 274.509 79.6326 274.206L76.4246 271.005H84.4904L89.4327 275.948C89.7719 276.287 90.2163 276.456 90.6608 276.456C91.1052 276.456 91.5497 276.287 91.8887 275.948C92.5671 275.27 92.5671 274.17 91.8889 273.492L89.4022 271.005H95.0319C95.9912 271.005 96.7685 270.228 96.7685 269.269C96.7685 268.309 95.9912 267.532 95.0319 267.532ZM74.4928 264.055L71.2577 267.532H66.741L70.2146 264.058L74.4928 264.055ZM67.4111 257.178L67.4935 261.81L64.1595 265.124V260.275L67.4111 257.178ZM57.467 257.197L60.6863 260.282V264.96L57.4621 261.717L57.467 257.197ZM50.4278 264.277L55.0036 264.112L58.423 267.532H53.7229L50.4278 264.277ZM50.5167 274.241L53.5277 271.005H58.3556L55.1508 274.21L50.5167 274.241ZM57.6059 281.679L57.4081 276.807L60.6863 273.509V278.512L57.6059 281.679ZM67.5521 281.601L64.1595 278.481V273.345L67.5034 276.67L67.5521 281.601ZM74.5382 274.03L69.9967 274.193L66.8084 271.005H71.5068L74.5382 274.03Z" fill="white" fill-opacity="0.76"/>
</g>
<g clip-path="url(#clip2_1_3)" filter="url(#filter14_f_1_3)">
<path d="M308.17 542.099L300.504 537.672L307.612 534.711C309.267 534.021 310.05 532.12 309.36 530.465C308.67 528.809 306.77 528.029 305.115 528.717L293.427 533.586L272.764 521.656L285.087 517.138C286.365 516.67 287.215 515.454 287.216 514.093C287.217 512.731 286.369 511.514 285.092 511.043L272.737 506.492L293.178 494.691L304.824 499.197C305.21 499.346 305.606 499.416 305.995 499.416C307.297 499.416 308.526 498.627 309.024 497.34C309.67 495.668 308.839 493.788 307.167 493.141L300.399 490.522L308.17 486.035C309.723 485.139 310.255 483.153 309.358 481.6C308.462 480.047 306.476 479.516 304.923 480.412L297.257 484.839L298.247 477.202C298.477 475.423 297.222 473.795 295.444 473.565C293.664 473.33 292.037 474.589 291.807 476.368L290.181 488.924L269.518 500.855L271.766 487.924C271.999 486.583 271.371 485.239 270.193 484.558C269.015 483.876 267.464 484.001 266.418 484.873L256.227 493.298V470.703L266.361 463.016C267.785 461.927 268.094 459.89 267.005 458.465C265.916 457.04 263.825 456.767 262.4 457.856L256.227 462.531V453.247C256.227 451.453 254.774 450 252.981 450C251.187 450 249.734 451.453 249.734 453.247V462.654L244.154 458.102C242.758 456.976 240.749 457.197 239.625 458.594C238.5 459.991 238.666 462.034 240.063 463.159L249.734 470.992V493.265L239.733 484.853C238.687 483.979 237.246 483.852 236.067 484.532C234.887 485.211 234.276 486.555 234.507 487.896L236.751 500.87L217.19 489.574L215.564 477.017C215.335 475.239 213.707 473.982 211.929 474.214C210.151 474.445 208.896 476.073 209.127 477.851L210.117 485.487L202.077 480.845C200.523 479.949 198.538 480.48 197.642 482.034C196.745 483.586 197.277 485.572 198.83 486.468L206.977 491.172L200.208 493.791C198.536 494.438 197.705 496.318 198.352 497.991C198.849 499.278 200.078 500.067 201.381 500.067C201.77 500.067 202.166 499.996 202.551 499.847L214.197 495.341L233.486 506.477L221.164 510.995C219.886 511.464 219.036 512.68 219.035 514.041C219.034 515.403 219.882 516.62 221.159 517.09L233.513 521.641L213.947 532.938L202.259 528.069C200.606 527.378 198.704 528.162 198.014 529.817C197.324 531.472 198.107 533.373 199.762 534.063L206.87 537.024L198.83 541.667C197.277 542.563 196.745 544.549 197.641 546.102C198.243 547.143 199.334 547.725 200.456 547.725C201.007 547.725 201.565 547.585 202.076 547.29L210.223 542.586L209.107 549.757C208.831 551.529 210.044 553.189 211.816 553.465C211.985 553.491 212.153 553.503 212.319 553.503C213.892 553.503 215.273 552.358 215.523 550.756L217.443 538.417L236.733 527.281L234.484 540.211C234.251 541.552 234.879 542.896 236.057 543.577C237.235 544.258 238.641 544.133 239.688 543.262L249.734 534.838V558.441L240.081 566.274C238.684 567.399 238.5 569.443 239.625 570.839C240.749 572.235 242.739 572.456 244.136 571.331L249.734 566.779V575.753C249.734 577.547 251.188 579 252.981 579C254.774 579 256.228 577.547 256.228 575.753V566.902L262.418 571.577C263.007 572.026 263.736 572.244 264.423 572.244C265.4 572.244 266.384 571.804 267.023 570.968C268.112 569.543 267.776 567.506 266.352 566.417L256.227 558.73V534.869L266.374 543.282C266.971 543.781 267.747 544.037 268.491 544.037C269.048 544.037 269.625 543.894 270.13 543.603C271.31 542.923 271.949 541.58 271.717 540.239L269.486 527.265L289.929 539.066L291.85 551.405C292.1 553.007 293.482 554.153 295.055 554.153C295.221 554.153 295.389 554.14 295.559 554.114C297.331 553.838 298.544 552.178 298.268 550.407L297.151 543.235L304.923 547.722C305.435 548.017 305.993 548.158 306.543 548.158C307.665 548.158 308.757 547.576 309.358 546.534C310.255 544.981 309.723 542.995 308.17 542.099ZM274.557 514.084L265.438 517.427L259.619 514.067L265.42 510.718L274.557 514.084ZM263.783 495.516L262.083 505.084L256.227 508.444V501.745L263.783 495.516ZM242.351 495.498L249.734 501.724V508.443L243.969 505.094L242.351 495.498ZM231.694 514.051L240.813 510.707L246.632 514.067L240.831 517.416L231.694 514.051ZM242.324 532.618L243.952 523.05L249.734 519.691V526.39L242.324 532.618ZM263.755 532.635L256.228 526.41V519.69L262.066 523.04L263.755 532.635Z" fill="white" fill-opacity="0.76"/>
</g>
<path d="M570 293C570 447.703 445.248 573 291.5 573C137.752 573 13 447.703 13 293C13 138.297 137.752 13 291.5 13C445.248 13 570 138.297 570 293Z" stroke="white" stroke-width="26"/>
<defs>
<filter id="filter0_f_1_3" x="476" y="275" width="95" height="89.1499" filterUnits="userSpaceOnUse" color-interpolation-filters="sRGB">
<feFlood flood-opacity="0" result="BackgroundImageFix"/>
<feBlend mode="normal" in="SourceGraphic" in2="BackgroundImageFix" result="shape"/>
<feGaussianBlur stdDeviation="1.5" result="effect1_foregroundBlur_1_3"/>
</filter>
<filter id="filter1_f_1_3" x="374.538" y="47.4747" width="94.8462" height="104.543" filterUnits="userSpaceOnUse" color-interpolation-filters="sRGB">
<feFlood flood-opacity="0" result="BackgroundImageFix"/>
<feBlend mode="normal" in="SourceGraphic" in2="BackgroundImageFix" result="shape"/>
<feGaussianBlur stdDeviation="1.5" result="effect1_foregroundBlur_1_3"/>
</filter>
<filter id="filter2_f_1_3" x="104" y="118.621" width="102.607" height="99.4783" filterUnits="userSpaceOnUse" color-interpolation-filters="sRGB">
<feFlood flood-opacity="0" result="BackgroundImageFix"/>
<feBlend mode="normal" in="SourceGraphic" in2="BackgroundImageFix" result="shape"/>
<feGaussianBlur stdDeviation="1.5" result="effect1_foregroundBlur_1_3"/>
</filter>
<filter id="filter3_f_1_3" x="93.9956" y="286.002" width="67.8152" height="72.7147" filterUnits="userSpaceOnUse" color-interpolation-filters="sRGB">
<feFlood flood-opacity="0" result="BackgroundImageFix"/>
<feBlend mode="normal" in="SourceGraphic" in2="BackgroundImageFix" result="shape"/>
<feGaussianBlur stdDeviation="1.5" result="effect1_foregroundBlur_1_3"/>
</filter>
<filter id="filter4_f_1_3" x="123.726" y="429.638" width="76.2743" height="58.7252" filterUnits="userSpaceOnUse" color-interpolation-filters="sRGB">
<feFlood flood-opacity="0" result="BackgroundImageFix"/>
<feBlend mode="normal" in="SourceGraphic" in2="BackgroundImageFix" result="shape"/>
<feGaussianBlur stdDeviation="1.5" result="effect1_foregroundBlur_1_3"/>
</filter>
<filter id="filter5_f_1_3" x="431.514" y="220.258" width="52.3736" height="41.9799" filterUnits="userSpaceOnUse" color-interpolation-filters="sRGB">
<feFlood flood-opacity="0" result="BackgroundImageFix"/>
<feBlend mode="normal" in="SourceGraphic" in2="BackgroundImageFix" result="shape"/>
<feGaussianBlur stdDeviation="1.5" result="effect1_foregroundBlur_1_3"/>
</filter>
<filter id="filter6_f_1_3" x="447.514" y="293.258" width="52.3736" height="41.9799" filterUnits="userSpaceOnUse" color-interpolation-filters="sRGB">
<feFlood flood-opacity="0" result="BackgroundImageFix"/>
<feBlend mode="normal" in="SourceGraphic" in2="BackgroundImageFix" result="shape"/>
<feGaussianBlur stdDeviation="1.5" result="effect1_foregroundBlur_1_3"/>
</filter>
<filter id="filter7_f_1_3" x="69.5144" y="166.258" width="52.3736" height="41.9799" filterUnits="userSpaceOnUse" color-interpolation-filters="sRGB">
<feFlood flood-opacity="0" result="BackgroundImageFix"/>
<feBlend mode="normal" in="SourceGraphic" in2="BackgroundImageFix" result="shape"/>
<feGaussianBlur stdDeviation="1.5" result="effect1_foregroundBlur_1_3"/>
</filter>
<filter id="filter8_f_1_3" x="41.7874" y="338.983" width="38.2126" height="34.6683" filterUnits="userSpaceOnUse" color-interpolation-filters="sRGB">
<feFlood flood-opacity="0" result="BackgroundImageFix"/>
<feBlend mode="normal" in="SourceGraphic" in2="BackgroundImageFix" result="shape"/>
<feGaussianBlur stdDeviation="1.5" result="effect1_foregroundBlur_1_3"/>
</filter>
<filter id="filter9_f_1_3" x="305.598" y="440.878" width="38.2126" height="34.6683" filterUnits="userSpaceOnUse" color-interpolation-filters="sRGB">
<feFlood flood-opacity="0" result="BackgroundImageFix"/>
<feBlend mode="normal" in="SourceGraphic" in2="BackgroundImageFix" result="shape"/>
<feGaussianBlur stdDeviation="1.5" result="effect1_foregroundBlur_1_3"/>
</filter>
<filter id="filter10_f_1_3" x="413.9" y="391.441" width="33.0789" height="36.5361" filterUnits="userSpaceOnUse" color-interpolation-filters="sRGB">
<feFlood flood-opacity="0" result="BackgroundImageFix"/>
<feBlend mode="normal" in="SourceGraphic" in2="BackgroundImageFix" result="shape"/>
<feGaussianBlur stdDeviation="1.5" result="effect1_foregroundBlur_1_3"/>
</filter>
<filter id="filter11_f_1_3" x="445.122" y="417.141" width="57.2122" height="57.3631" filterUnits="userSpaceOnUse" color-interpolation-filters="sRGB">
<feFlood flood-opacity="0" result="BackgroundImageFix"/>
<feBlend mode="normal" in="SourceGraphic" in2="BackgroundImageFix" result="shape"/>
<feGaussianBlur stdDeviation="1.5" result="effect1_foregroundBlur_1_3"/>
</filter>
<filter id="filter12_f_1_3" x="485" y="179" width="77" height="77" filterUnits="userSpaceOnUse" color-interpolation-filters="sRGB">
<feFlood flood-opacity="0" result="BackgroundImageFix"/>
<feBlend mode="normal" in="SourceGraphic" in2="BackgroundImageFix" result="shape"/>
<feGaussianBlur stdDeviation="2" result="effect1_foregroundBlur_1_3"/>
</filter>
<filter id="filter13_f_1_3" x="24" y="231" width="77" height="77" filterUnits="userSpaceOnUse" color-interpolation-filters="sRGB">
<feFlood flood-opacity="0" result="BackgroundImageFix"/>
<feBlend mode="normal" in="SourceGraphic" in2="BackgroundImageFix" result="shape"/>
<feGaussianBlur stdDeviation="2" result="effect1_foregroundBlur_1_3"/>
</filter>
<filter id="filter14_f_1_3" x="185" y="446" width="137" height="137" filterUnits="userSpaceOnUse" color-interpolation-filters="sRGB">
<feFlood flood-opacity="0" result="BackgroundImageFix"/>
<feBlend mode="normal" in="SourceGraphic" in2="BackgroundImageFix" result="shape"/>
<feGaussianBlur stdDeviation="2" result="effect1_foregroundBlur_1_3"/>
</filter>
<clipPath id="clip0_1_3">
<rect width="69" height="69" fill="white" transform="translate(489 183)"/>
</clipPath>
<clipPath id="clip1_1_3">
<rect width="69" height="69" fill="white" transform="translate(28 235)"/>
</clipPath>
<clipPath id="clip2_1_3">
<rect width="129" height="129" fill="white" transform="translate(189 450)"/>
</clipPath>
</defs>
</svg>
